<svg xmlns="http://www.w3.org/2000/svg" xmlns:xlink="http://www.w3.org/1999/xlink" version="1.1" width="612pt" height="792pt" viewBox="0 0 612 792">
<defs>
<clipPath id="clip_0">
<path transform="matrix(1,0,0,-1,0,792)" d="M.00000912 0H612V792H.00000912Z" fill-rule="evenodd"/>
</clipPath>
<clipPath id="clip_1">
<path transform="matrix(1,0,0,-1,0,792)" d="M.00000912 0H612V792H.00000912Z" fill-rule="evenodd"/>
</clipPath>
<clipPath id="clip_2">
<path transform="matrix(1,0,0,-1,0,792)" d="M.00000912 0H612V792H.00000912Z" fill-rule="evenodd"/>
</clipPath>
<clipPath id="clip_3">
<path transform="matrix(1,0,0,-1,0,792)" d="M.00000912 0H612V792H.00000912Z" fill-rule="evenodd"/>
</clipPath>
<clipPath id="clip_4">
<path transform="matrix(1,0,0,-1,0,792)" d="M.00000912 0H612V792H.00000912Z" fill-rule="evenodd"/>
</clipPath>
<clipPath id="clip_5">
<path transform="matrix(1,0,0,-1,0,792)" d="M.00000912 0H612V792H.00000912Z" fill-rule="evenodd"/>
</clipPath>
<clipPath id="clip_6">
<path transform="matrix(1,0,0,-1,0,792)" d="M.00000912 0H612V792H.00000912Z" fill-rule="evenodd"/>
</clipPath>
<clipPath id="clip_7">
<path transform="matrix(1,0,0,-1,0,792)" d="M.00000912 0H612V792H.00000912Z" fill-rule="evenodd"/>
</clipPath>
<clipPath id="clip_8">
<path transform="matrix(1,0,0,-1,0,792)" d="M.00000912 0H612V792H.00000912Z" fill-rule="evenodd"/>
</clipPath>
<clipPath id="clip_9">
<path transform="matrix(1,0,0,-1,0,792)" d="M.00000912 0H612V792H.00000912Z" fill-rule="evenodd"/>
</clipPath>
<clipPath id="clip_10">
<path transform="matrix(1,0,0,-1,0,792)" d="M.00000912 0H612V792H.00000912Z" fill-rule="evenodd"/>
</clipPath>
<clipPath id="clip_11">
<path transform="matrix(1,0,0,-1,0,792)" d="M.00000912 0H612V792H.00000912Z" fill-rule="evenodd"/>
</clipPath>
<clipPath id="clip_12">
<path transform="matrix(1,0,0,-1,0,792)" d="M.00000912 0H612V792H.00000912Z" fill-rule="evenodd"/>
</clipPath>
<clipPath id="clip_13">
<path transform="matrix(1,0,0,-1,0,792)" d="M.00000912 0H612V792H.00000912Z" fill-rule="evenodd"/>
</clipPath>
<clipPath id="clip_14">
<path transform="matrix(1,0,0,-1,0,792)" d="M.00000912 0H612V792H.00000912Z" fill-rule="evenodd"/>
</clipPath>
<clipPath id="clip_15">
<path transform="matrix(1,0,0,-1,0,792)" d="M72.024 572.02H239.684V648.7H72.024Z" fill-rule="evenodd"/>
</clipPath>
<clipPath id="clip_16">
<path transform="matrix(1,0,0,-1,0,792)" d="M72.024 572.02H239.684V648.7H72.024Z" fill-rule="evenodd"/>
</clipPath>
<clipPath id="clip_17">
<path transform="matrix(1,0,0,-1,0,792)" d="M72.024 572.02H239.684V648.7H72.024Z" fill-rule="evenodd"/>
</clipPath>
<clipPath id="clip_18">
<path transform="matrix(1,0,0,-1,0,792)" d="M72.024 572.02H239.684V648.7H72.024Z" fill-rule="evenodd"/>
</clipPath>
<clipPath id="clip_19">
<path transform="matrix(1,0,0,-1,0,792)" d="M72.024 572.02H239.684V648.7H72.024Z" fill-rule="evenodd"/>
</clipPath>
<clipPath id="clip_20">
<path transform="matrix(1,0,0,-1,0,792)" d="M72.024 572.02H239.684V648.7H72.024Z" fill-rule="evenodd"/>
</clipPath>
<clipPath id="clip_21">
<path transform="matrix(1,0,0,-1,0,792)" d="M72.024 572.02H239.684V648.7H72.024Z" fill-rule="evenodd"/>
</clipPath>
<clipPath id="clip_22">
<path transform="matrix(1,0,0,-1,0,792)" d="M72.024 572.02H239.684V648.7H72.024Z" fill-rule="evenodd"/>
</clipPath>
<clipPath id="clip_23">
<path transform="matrix(1,0,0,-1,0,792)" d="M72.024 572.02H239.684V648.7H72.024Z" fill-rule="evenodd"/>
</clipPath>
<clipPath id="clip_24">
<path transform="matrix(1,0,0,-1,0,792)" d="M72.024 572.02H239.684V648.7H72.024Z" fill-rule="evenodd"/>
</clipPath>
<clipPath id="clip_25">
<path transform="matrix(1,0,0,-1,0,792)" d="M72.024 572.02H239.684V648.7H72.024Z" fill-rule="evenodd"/>
</clipPath>
<clipPath id="clip_26">
<path transform="matrix(1,0,0,-1,0,792)" d="M72.024 572.02H239.684V648.7H72.024Z" fill-rule="evenodd"/>
</clipPath>
<clipPath id="clip_27">
<path transform="matrix(1,0,0,-1,0,792)" d="M72.024 572.02H239.684V648.7H72.024Z" fill-rule="evenodd"/>
</clipPath>
<clipPath id="clip_28">
<path transform="matrix(1,0,0,-1,0,792)" d="M72.024 572.02H239.684V648.7H72.024Z" fill-rule="evenodd"/>
</clipPath>
<clipPath id="clip_29">
<path transform="matrix(1,0,0,-1,0,792)" d="M72.024 572.02H239.684V648.7H72.024Z" fill-rule="evenodd"/>
</clipPath>
<clipPath id="clip_30">
<path transform="matrix(1,0,0,-1,0,792)" d="M72.024 572.02H239.684V648.7H72.024Z" fill-rule="evenodd"/>
</clipPath>
<clipPath id="clip_31">
<path transform="matrix(1,0,0,-1,0,792)" d="M72.024 572.02H239.684V648.7H72.024Z" fill-rule="evenodd"/>
</clipPath>
<clipPath id="clip_32">
<path transform="matrix(1,0,0,-1,0,792)" d="M72.024 572.02H239.684V648.7H72.024Z" fill-rule="evenodd"/>
</clipPath>
<clipPath id="clip_33">
<path transform="matrix(1,0,0,-1,0,792)" d="M72.024 572.02H239.684V648.7H72.024Z" fill-rule="evenodd"/>
</clipPath>
<clipPath id="clip_34">
<path transform="matrix(1,0,0,-1,0,792)" d="M239.69 572.02H378.43V648.7H239.69Z" fill-rule="evenodd"/>
</clipPath>
<clipPath id="clip_35">
<path transform="matrix(1,0,0,-1,0,792)" d="M239.69 572.02H378.43V648.7H239.69Z" fill-rule="evenodd"/>
</clipPath>
<clipPath id="clip_36">
<path transform="matrix(1,0,0,-1,0,792)" d="M239.69 572.02H378.43V648.7H239.69Z" fill-rule="evenodd"/>
</clipPath>
<clipPath id="clip_37">
<path transform="matrix(1,0,0,-1,0,792)" d="M239.69 572.02H378.43V648.7H239.69Z" fill-rule="evenodd"/>
</clipPath>
<clipPath id="clip_38">
<path transform="matrix(1,0,0,-1,0,792)" d="M239.69 572.02H378.43V648.7H239.69Z" fill-rule="evenodd"/>
</clipPath>
<clipPath id="clip_39">
<path transform="matrix(1,0,0,-1,0,792)" d="M239.69 572.02H378.43V648.7H239.69Z" fill-rule="evenodd"/>
</clipPath>
<clipPath id="clip_40">
<path transform="matrix(1,0,0,-1,0,792)" d="M239.69 572.02H378.43V648.7H239.69Z" fill-rule="evenodd"/>
</clipPath>
<clipPath id="clip_41">
<path transform="matrix(1,0,0,-1,0,792)" d="M239.69 572.02H378.43V648.7H239.69Z" fill-rule="evenodd"/>
</clipPath>
<clipPath id="clip_42">
<path transform="matrix(1,0,0,-1,0,792)" d="M239.69 572.02H378.43V648.7H239.69Z" fill-rule="evenodd"/>
</clipPath>
<clipPath id="clip_43">
<path transform="matrix(1,0,0,-1,0,792)" d="M239.69 572.02H378.43V648.7H239.69Z" fill-rule="evenodd"/>
</clipPath>
<clipPath id="clip_44">
<path transform="matrix(1,0,0,-1,0,792)" d="M239.69 572.02H378.43V648.7H239.69Z" fill-rule="evenodd"/>
</clipPath>
<clipPath id="clip_45">
<path transform="matrix(1,0,0,-1,0,792)" d="M239.69 572.02H378.43V648.7H239.69Z" fill-rule="evenodd"/>
</clipPath>
<clipPath id="clip_46">
<path transform="matrix(1,0,0,-1,0,792)" d="M239.69 572.02H378.43V648.7H239.69Z" fill-rule="evenodd"/>
</clipPath>
<clipPath id="clip_47">
<path transform="matrix(1,0,0,-1,0,792)" d="M239.69 572.02H378.43V648.7H239.69Z" fill-rule="evenodd"/>
</clipPath>
<clipPath id="clip_48">
<path transform="matrix(1,0,0,-1,0,792)" d="M239.69 572.02H378.43V648.7H239.69Z" fill-rule="evenodd"/>
</clipPath>
<clipPath id="clip_49">
<path transform="matrix(1,0,0,-1,0,792)" d="M239.69 572.02H378.43V648.7H239.69Z" fill-rule="evenodd"/>
</clipPath>
<clipPath id="clip_50">
<path transform="matrix(1,0,0,-1,0,792)" d="M239.69 572.02H378.43V648.7H239.69Z" fill-rule="evenodd"/>
</clipPath>
<clipPath id="clip_51">
<path transform="matrix(1,0,0,-1,0,792)" d="M239.69 572.02H378.43V648.7H239.69Z" fill-rule="evenodd"/>
</clipPath>
<clipPath id="clip_52">
<path transform="matrix(1,0,0,-1,0,792)" d="M239.69 572.02H378.43V648.7H239.69Z" fill-rule="evenodd"/>
</clipPath>
<clipPath id="clip_53">
<path transform="matrix(1,0,0,-1,0,792)" d="M378.43 572.02H545.49V648.7H378.43Z" fill-rule="evenodd"/>
</clipPath>
<clipPath id="clip_54">
<path transform="matrix(1,0,0,-1,0,792)" d="M378.43 572.02H545.49V648.7H378.43Z" fill-rule="evenodd"/>
</clipPath>
<clipPath id="clip_55">
<path transform="matrix(1,0,0,-1,0,792)" d="M378.43 572.02H545.49V648.7H378.43Z" fill-rule="evenodd"/>
</clipPath>
<clipPath id="clip_56">
<path transform="matrix(1,0,0,-1,0,792)" d="M378.43 572.02H545.49V648.7H378.43Z" fill-rule="evenodd"/>
</clipPath>
<clipPath id="clip_57">
<path transform="matrix(1,0,0,-1,0,792)" d="M378.43 572.02H545.49V648.7H378.43Z" fill-rule="evenodd"/>
</clipPath>
<clipPath id="clip_58">
<path transform="matrix(1,0,0,-1,0,792)" d="M378.43 572.02H545.49V648.7H378.43Z" fill-rule="evenodd"/>
</clipPath>
<clipPath id="clip_59">
<path transform="matrix(1,0,0,-1,0,792)" d="M378.43 572.02H545.49V648.7H378.43Z" fill-rule="evenodd"/>
</clipPath>
<clipPath id="clip_60">
<path transform="matrix(1,0,0,-1,0,792)" d="M378.43 572.02H545.49V648.7H378.43Z" fill-rule="evenodd"/>
</clipPath>
<clipPath id="clip_61">
<path transform="matrix(1,0,0,-1,0,792)" d="M378.43 572.02H545.49V648.7H378.43Z" fill-rule="evenodd"/>
</clipPath>
<clipPath id="clip_62">
<path transform="matrix(1,0,0,-1,0,792)" d="M378.43 572.02H545.49V648.7H378.43Z" fill-rule="evenodd"/>
</clipPath>
<clipPath id="clip_63">
<path transform="matrix(1,0,0,-1,0,792)" d="M378.43 572.02H545.49V648.7H378.43Z" fill-rule="evenodd"/>
</clipPath>
<clipPath id="clip_64">
<path transform="matrix(1,0,0,-1,0,792)" d="M378.43 572.02H545.49V648.7H378.43Z" fill-rule="evenodd"/>
</clipPath>
<clipPath id="clip_65">
<path transform="matrix(1,0,0,-1,0,792)" d="M378.43 572.02H545.49V648.7H378.43Z" fill-rule="evenodd"/>
</clipPath>
<clipPath id="clip_66">
<path transform="matrix(1,0,0,-1,0,792)" d="M378.43 572.02H545.49V648.7H378.43Z" fill-rule="evenodd"/>
</clipPath>
<clipPath id="clip_67">
<path transform="matrix(1,0,0,-1,0,792)" d="M378.43 572.02H545.49V648.7H378.43Z" fill-rule="evenodd"/>
</clipPath>
<clipPath id="clip_68">
<path transform="matrix(1,0,0,-1,0,792)" d="M378.43 572.02H545.49V648.7H378.43Z" fill-rule="evenodd"/>
</clipPath>
<clipPath id="clip_69">
<path transform="matrix(1,0,0,-1,0,792)" d="M378.43 572.02H545.49V648.7H378.43Z" fill-rule="evenodd"/>
</clipPath>
<clipPath id="clip_70">
<path transform="matrix(1,0,0,-1,0,792)" d="M378.43 572.02H545.49V648.7H378.43Z" fill-rule="evenodd"/>
</clipPath>
<clipPath id="clip_71">
<path transform="matrix(1,0,0,-1,0,792)" d="M.00000912 0H612V792H.00000912Z" fill-rule="evenodd"/>
</clipPath>
<clipPath id="clip_72">
<path transform="matrix(1,0,0,-1,0,792)" d="M.00000912 0H612V792H.00000912Z" fill-rule="evenodd"/>
</clipPath>
<clipPath id="clip_73">
<path transform="matrix(1,0,0,-1,0,792)" d="M.00000912 0H612V792H.00000912Z" fill-rule="evenodd"/>
</clipPath>
<clipPath id="clip_74">
<path transform="matrix(1,0,0,-1,0,792)" d="M.00000912 0H612V792H.00000912Z" fill-rule="evenodd"/>
</clipPath>
<clipPath id="clip_75">
<path transform="matrix(1,0,0,-1,0,792)" d="M.00000912 0H612V792H.00000912Z" fill-rule="evenodd"/>
</clipPath>
<clipPath id="clip_76">
<path transform="matrix(1,0,0,-1,0,792)" d="M.00000912 0H612V792H.00000912Z" fill-rule="evenodd"/>
</clipPath>
<clipPath id="clip_77">
<path transform="matrix(1,0,0,-1,0,792)" d="M.00000912 0H612V792H.00000912Z" fill-rule="evenodd"/>
</clipPath>
<clipPath id="clip_78">
<path transform="matrix(1,0,0,-1,0,792)" d="M.00000912 0H612V792H.00000912Z" fill-rule="evenodd"/>
</clipPath>
<clipPath id="clip_79">
<path transform="matrix(1,0,0,-1,0,792)" d="M.00000912 0H612V792H.00000912Z" fill-rule="evenodd"/>
</clipPath>
<clipPath id="clip_80">
<path transform="matrix(1,0,0,-1,0,792)" d="M.00000912 0H612V792H.00000912Z" fill-rule="evenodd"/>
</clipPath>
<clipPath id="clip_81">
<path transform="matrix(1,0,0,-1,0,792)" d="M.00000912 0H612V792H.00000912Z" fill-rule="evenodd"/>
</clipPath>
<clipPath id="clip_82">
<path transform="matrix(1,0,0,-1,0,792)" d="M.00000912 0H612V792H.00000912Z" fill-rule="evenodd"/>
</clipPath>
<clipPath id="clip_83">
<path transform="matrix(1,0,0,-1,0,792)" d="M.00000912 0H612V792H.00000912Z" fill-rule="evenodd"/>
</clipPath>
<clipPath id="clip_84">
<path transform="matrix(1,0,0,-1,0,792)" d="M.00000912 0H612V792H.00000912Z" fill-rule="evenodd"/>
</clipPath>
<clipPath id="clip_85">
<path transform="matrix(1,0,0,-1,0,792)" d="M.00000912 0H612V792H.00000912Z" fill-rule="evenodd"/>
</clipPath>
<clipPath id="clip_86">
<path transform="matrix(1,0,0,-1,0,792)" d="M.00000912 0H612V792H.00000912Z" fill-rule="evenodd"/>
</clipPath>
<clipPath id="clip_87">
<path transform="matrix(1,0,0,-1,0,792)" d="M.00000912 0H612V792H.00000912Z" fill-rule="evenodd"/>
</clipPath>
<clipPath id="clip_88">
<path transform="matrix(1,0,0,-1,0,792)" d="M.00000912 0H612V792H.00000912Z" fill-rule="evenodd"/>
</clipPath>
<clipPath id="clip_89">
<path transform="matrix(1,0,0,-1,0,792)" d="M.00000912 0H612V792H.00000912Z" fill-rule="evenodd"/>
</clipPath>
<clipPath id="clip_90">
<path transform="matrix(1,0,0,-1,0,792)" d="M.00000912 0H612V792H.00000912Z" fill-rule="evenodd"/>
</clipPath>
<clipPath id="clip_91">
<path transform="matrix(1,0,0,-1,0,792)" d="M.00000912 0H612V792H.00000912Z" fill-rule="evenodd"/>
</clipPath>
<clipPath id="clip_92">
<path transform="matrix(1,0,0,-1,0,792)" d="M.00000912 0H612V792H.00000912Z" fill-rule="evenodd"/>
</clipPath>
<clipPath id="clip_93">
<path transform="matrix(1,0,0,-1,0,792)" d="M.00000912 0H612V792H.00000912Z" fill-rule="evenodd"/>
</clipPath>
<clipPath id="clip_94">
<path transform="matrix(1,0,0,-1,0,792)" d="M.00000912 0H612V792H.00000912Z" fill-rule="evenodd"/>
</clipPath>
<clipPath id="clip_95">
<path transform="matrix(1,0,0,-1,0,792)" d="M.00000912 0H612V792H.00000912Z" fill-rule="evenodd"/>
</clipPath>
<clipPath id="clip_96">
<path transform="matrix(1,0,0,-1,0,792)" d="M.00000912 0H612V792H.00000912Z" fill-rule="evenodd"/>
</clipPath>
<clipPath id="clip_97">
<path transform="matrix(1,0,0,-1,0,792)" d="M.00000912 0H612V792H.00000912Z" fill-rule="evenodd"/>
</clipPath>
<clipPath id="clip_98">
<path transform="matrix(1,0,0,-1,0,792)" d="M.00000912 0H612V792H.00000912Z" fill-rule="evenodd"/>
</clipPath>
<clipPath id="clip_99">
<path transform="matrix(1,0,0,-1,0,792)" d="M.00000912 0H612V792H.00000912Z" fill-rule="evenodd"/>
</clipPath>
<clipPath id="clip_100">
<path transform="matrix(1,0,0,-1,0,792)" d="M.00000912 0H612V792H.00000912Z" fill-rule="evenodd"/>
</clipPath>
<clipPath id="clip_101">
<path transform="matrix(1,0,0,-1,0,792)" d="M.00000912 0H612V792H.00000912Z" fill-rule="evenodd"/>
</clipPath>
<clipPath id="clip_102">
<path transform="matrix(1,0,0,-1,0,792)" d="M.00000912 0H612V792H.00000912Z" fill-rule="evenodd"/>
</clipPath>
<clipPath id="clip_103">
<path transform="matrix(1,0,0,-1,0,792)" d="M.00000912 0H612V792H.00000912Z" fill-rule="evenodd"/>
</clipPath>
<clipPath id="clip_104">
<path transform="matrix(1,0,0,-1,0,792)" d="M.00000912 0H612V792H.00000912Z" fill-rule="evenodd"/>
</clipPath>
<clipPath id="clip_105">
<path transform="matrix(1,0,0,-1,0,792)" d="M.00000912 0H612V792H.00000912Z" fill-rule="evenodd"/>
</clipPath>
<clipPath id="clip_106">
<path transform="matrix(1,0,0,-1,0,792)" d="M.00000912 0H612V792H.00000912Z" fill-rule="evenodd"/>
</clipPath>
<clipPath id="clip_107">
<path transform="matrix(1,0,0,-1,0,792)" d="M.00000912 0H612V792H.00000912Z" fill-rule="evenodd"/>
</clipPath>
<clipPath id="clip_108">
<path transform="matrix(1,0,0,-1,0,792)" d="M.00000912 0H612V792H.00000912Z" fill-rule="evenodd"/>
</clipPath>
<clipPath id="clip_109">
<path transform="matrix(1,0,0,-1,0,792)" d="M.00000912 0H612V792H.00000912Z" fill-rule="evenodd"/>
</clipPath>
<clipPath id="clip_110">
<path transform="matrix(1,0,0,-1,0,792)" d="M.00000912 0H612V792H.00000912Z" fill-rule="evenodd"/>
</clipPath>
<clipPath id="clip_111">
<path transform="matrix(1,0,0,-1,0,792)" d="M.00000912 0H612V792H.00000912Z" fill-rule="evenodd"/>
</clipPath>
<clipPath id="clip_112">
<path transform="matrix(1,0,0,-1,0,792)" d="M.00000912 0H612V792H.00000912Z" fill-rule="evenodd"/>
</clipPath>
<clipPath id="clip_113">
<path transform="matrix(1,0,0,-1,0,792)" d="M.00000912 0H612V792H.00000912Z" fill-rule="evenodd"/>
</clipPath>
<clipPath id="clip_114">
<path transform="matrix(1,0,0,-1,0,792)" d="M.00000912 0H612V792H.00000912Z" fill-rule="evenodd"/>
</clipPath>
<clipPath id="clip_115">
<path transform="matrix(1,0,0,-1,0,792)" d="M.00000912 0H612V792H.00000912Z" fill-rule="evenodd"/>
</clipPath>
<clipPath id="clip_116">
<path transform="matrix(1,0,0,-1,0,792)" d="M.00000912 0H612V792H.00000912Z" fill-rule="evenodd"/>
</clipPath>
<clipPath id="clip_117">
<path transform="matrix(1,0,0,-1,0,792)" d="M.00000912 0H612V792H.00000912Z" fill-rule="evenodd"/>
</clipPath>
<clipPath id="clip_118">
<path transform="matrix(1,0,0,-1,0,792)" d="M.00000912 0H612V792H.00000912Z" fill-rule="evenodd"/>
</clipPath>
<clipPath id="clip_119">
<path transform="matrix(1,0,0,-1,0,792)" d="M.00000912 0H612V792H.00000912Z" fill-rule="evenodd"/>
</clipPath>
<clipPath id="clip_120">
<path transform="matrix(1,0,0,-1,0,792)" d="M.00000912 0H612V792H.00000912Z" fill-rule="evenodd"/>
</clipPath>
<clipPath id="clip_121">
<path transform="matrix(1,0,0,-1,0,792)" d="M.00000912 0H612V792H.00000912Z" fill-rule="evenodd"/>
</clipPath>
<clipPath id="clip_122">
<path transform="matrix(1,0,0,-1,0,792)" d="M.00000912 0H612V792H.00000912Z" fill-rule="evenodd"/>
</clipPath>
<clipPath id="clip_123">
<path transform="matrix(1,0,0,-1,0,792)" d="M.00000912 0H612V792H.00000912Z" fill-rule="evenodd"/>
</clipPath>
<clipPath id="clip_124">
<path transform="matrix(1,0,0,-1,0,792)" d="M.00000912 0H612V792H.00000912Z" fill-rule="evenodd"/>
</clipPath>
<clipPath id="clip_125">
<path transform="matrix(1,0,0,-1,0,792)" d="M.00000912 0H612V792H.00000912Z" fill-rule="evenodd"/>
</clipPath>
<clipPath id="clip_126">
<path transform="matrix(1,0,0,-1,0,792)" d="M.00000912 0H612V792H.00000912Z" fill-rule="evenodd"/>
</clipPath>
<clipPath id="clip_127">
<path transform="matrix(1,0,0,-1,0,792)" d="M.00000912 0H612V792H.00000912Z" fill-rule="evenodd"/>
</clipPath>
<clipPath id="clip_128">
<path transform="matrix(1,0,0,-1,0,792)" d="M.00000912 0H612V792H.00000912Z" fill-rule="evenodd"/>
</clipPath>
<clipPath id="clip_129">
<path transform="matrix(1,0,0,-1,0,792)" d="M.00000912 0H612V792H.00000912Z" fill-rule="evenodd"/>
</clipPath>
<clipPath id="clip_130">
<path transform="matrix(1,0,0,-1,0,792)" d="M.00000912 0H612V792H.00000912Z" fill-rule="evenodd"/>
</clipPath>
<clipPath id="clip_131">
<path transform="matrix(1,0,0,-1,0,792)" d="M.00000912 0H612V792H.00000912Z" fill-rule="evenodd"/>
</clipPath>
<clipPath id="clip_132">
<path transform="matrix(1,0,0,-1,0,792)" d="M.00000912 0H612V792H.00000912Z" fill-rule="evenodd"/>
</clipPath>
<clipPath id="clip_133">
<path transform="matrix(1,0,0,-1,0,792)" d="M.00000912 0H612V792H.00000912Z" fill-rule="evenodd"/>
</clipPath>
<clipPath id="clip_134">
<path transform="matrix(1,0,0,-1,0,792)" d="M.00000912 0H612V792H.00000912Z" fill-rule="evenodd"/>
</clipPath>
<clipPath id="clip_135">
<path transform="matrix(1,0,0,-1,0,792)" d="M.00000912 0H612V792H.00000912Z" fill-rule="evenodd"/>
</clipPath>
<clipPath id="clip_136">
<path transform="matrix(1,0,0,-1,0,792)" d="M.00000912 0H612V792H.00000912Z" fill-rule="evenodd"/>
</clipPath>
<clipPath id="clip_137">
<path transform="matrix(1,0,0,-1,0,792)" d="M.00000912 0H612V792H.00000912Z" fill-rule="evenodd"/>
</clipPath>
<clipPath id="clip_138">
<path transform="matrix(1,0,0,-1,0,792)" d="M.00000912 0H612V792H.00000912Z" fill-rule="evenodd"/>
</clipPath>
<clipPath id="clip_139">
<path transform="matrix(1,0,0,-1,0,792)" d="M.00000912 0H612V792H.00000912Z" fill-rule="evenodd"/>
</clipPath>
<clipPath id="clip_140">
<path transform="matrix(1,0,0,-1,0,792)" d="M.00000912 0H612V792H.00000912Z" fill-rule="evenodd"/>
</clipPath>
<clipPath id="clip_141">
<path transform="matrix(1,0,0,-1,0,792)" d="M.00000912 0H612V792H.00000912Z" fill-rule="evenodd"/>
</clipPath>
<clipPath id="clip_142">
<path transform="matrix(1,0,0,-1,0,792)" d="M.00000912 0H612V792H.00000912Z" fill-rule="evenodd"/>
</clipPath>
<clipPath id="clip_143">
<path transform="matrix(1,0,0,-1,0,792)" d="M.00000912 0H612V792H.00000912Z" fill-rule="evenodd"/>
</clipPath>
<clipPath id="clip_144">
<path transform="matrix(1,0,0,-1,0,792)" d="M.00000912 0H612V792H.00000912Z" fill-rule="evenodd"/>
</clipPath>
<clipPath id="clip_145">
<path transform="matrix(1,0,0,-1,0,792)" d="M.00000912 0H612V792H.00000912Z" fill-rule="evenodd"/>
</clipPath>
<clipPath id="clip_146">
<path transform="matrix(1,0,0,-1,0,792)" d="M.00000912 0H612V792H.00000912Z" fill-rule="evenodd"/>
</clipPath>
<clipPath id="clip_147">
<path transform="matrix(1,0,0,-1,0,792)" d="M.00000912 0H612V792H.00000912Z" fill-rule="evenodd"/>
</clipPath>
<clipPath id="clip_148">
<path transform="matrix(1,0,0,-1,0,792)" d="M.00000912 0H612V792H.00000912Z" fill-rule="evenodd"/>
</clipPath>
<clipPath id="clip_149">
<path transform="matrix(1,0,0,-1,0,792)" d="M.00000912 0H612V792H.00000912Z" fill-rule="evenodd"/>
</clipPath>
<clipPath id="clip_150">
<path transform="matrix(1,0,0,-1,0,792)" d="M.00000912 0H612V792H.00000912Z" fill-rule="evenodd"/>
</clipPath>
<clipPath id="clip_151">
<path transform="matrix(1,0,0,-1,0,792)" d="M.00000912 0H612V792H.00000912Z" fill-rule="evenodd"/>
</clipPath>
<clipPath id="clip_152">
<path transform="matrix(1,0,0,-1,0,792)" d="M.00000912 0H612V792H.00000912Z" fill-rule="evenodd"/>
</clipPath>
<clipPath id="clip_153">
<path transform="matrix(1,0,0,-1,0,792)" d="M.00000912 0H612V792H.00000912Z" fill-rule="evenodd"/>
</clipPath>
<clipPath id="clip_154">
<path transform="matrix(1,0,0,-1,0,792)" d="M.00000912 0H612V792H.00000912Z" fill-rule="evenodd"/>
</clipPath>
<clipPath id="clip_155">
<path transform="matrix(1,0,0,-1,0,792)" d="M.00000912 0H612V792H.00000912Z" fill-rule="evenodd"/>
</clipPath>
<clipPath id="clip_156">
<path transform="matrix(1,0,0,-1,0,792)" d="M.00000912 0H612V792H.00000912Z" fill-rule="evenodd"/>
</clipPath>
<clipPath id="clip_157">
<path transform="matrix(1,0,0,-1,0,792)" d="M.00000912 0H612V792H.00000912Z" fill-rule="evenodd"/>
</clipPath>
<clipPath id="clip_158">
<path transform="matrix(1,0,0,-1,0,792)" d="M.00000912 0H612V792H.00000912Z" fill-rule="evenodd"/>
</clipPath>
<clipPath id="clip_159">
<path transform="matrix(1,0,0,-1,0,792)" d="M.00000912 0H612V792H.00000912Z" fill-rule="evenodd"/>
</clipPath>
<clipPath id="clip_160">
<path transform="matrix(1,0,0,-1,0,792)" d="M.00000912 0H612V792H.00000912Z" fill-rule="evenodd"/>
</clipPath>
<clipPath id="clip_161">
<path transform="matrix(1,0,0,-1,0,792)" d="M.00000912 0H612V792H.00000912Z" fill-rule="evenodd"/>
</clipPath>
<clipPath id="clip_162">
<path transform="matrix(1,0,0,-1,0,792)" d="M.00000912 0H612V792H.00000912Z" fill-rule="evenodd"/>
</clipPath>
<clipPath id="clip_163">
<path transform="matrix(1,0,0,-1,0,792)" d="M.00000912 0H612V792H.00000912Z" fill-rule="evenodd"/>
</clipPath>
<clipPath id="clip_164">
<path transform="matrix(1,0,0,-1,0,792)" d="M.00000912 0H612V792H.00000912Z" fill-rule="evenodd"/>
</clipPath>
<clipPath id="clip_165">
<path transform="matrix(1,0,0,-1,0,792)" d="M.00000912 0H612V792H.00000912Z" fill-rule="evenodd"/>
</clipPath>
<clipPath id="clip_166">
<path transform="matrix(1,0,0,-1,0,792)" d="M.00000912 0H612V792H.00000912Z" fill-rule="evenodd"/>
</clipPath>
<clipPath id="clip_167">
<path transform="matrix(1,0,0,-1,0,792)" d="M.00000912 0H612V792H.00000912Z" fill-rule="evenodd"/>
</clipPath>
<clipPath id="clip_168">
<path transform="matrix(1,0,0,-1,0,792)" d="M.00000912 0H612V792H.00000912Z" fill-rule="evenodd"/>
</clipPath>
<clipPath id="clip_169">
<path transform="matrix(1,0,0,-1,0,792)" d="M.00000912 0H612V792H.00000912Z" fill-rule="evenodd"/>
</clipPath>
<clipPath id="clip_170">
<path transform="matrix(1,0,0,-1,0,792)" d="M.00000912 0H612V792H.00000912Z" fill-rule="evenodd"/>
</clipPath>
<clipPath id="clip_171">
<path transform="matrix(1,0,0,-1,0,792)" d="M.00000912 0H612V792H.00000912Z" fill-rule="evenodd"/>
</clipPath>
<clipPath id="clip_172">
<path transform="matrix(1,0,0,-1,0,792)" d="M.00000912 0H612V792H.00000912Z" fill-rule="evenodd"/>
</clipPath>
<clipPath id="clip_173">
<path transform="matrix(1,0,0,-1,0,792)" d="M.00000912 0H612V792H.00000912Z" fill-rule="evenodd"/>
</clipPath>
<clipPath id="clip_174">
<path transform="matrix(1,0,0,-1,0,792)" d="M.00000912 0H612V792H.00000912Z" fill-rule="evenodd"/>
</clipPath>
<clipPath id="clip_175">
<path transform="matrix(1,0,0,-1,0,792)" d="M.00000912 0H612V792H.00000912Z" fill-rule="evenodd"/>
</clipPath>
<clipPath id="clip_176">
<path transform="matrix(1,0,0,-1,0,792)" d="M.00000912 0H612V792H.00000912Z" fill-rule="evenodd"/>
</clipPath>
<clipPath id="clip_177">
<path transform="matrix(1,0,0,-1,0,792)" d="M.00000912 0H612V792H.00000912Z" fill-rule="evenodd"/>
</clipPath>
<clipPath id="clip_178">
<path transform="matrix(1,0,0,-1,0,792)" d="M.00000912 0H612V792H.00000912Z" fill-rule="evenodd"/>
</clipPath>
<clipPath id="clip_179">
<path transform="matrix(1,0,0,-1,0,792)" d="M.00000912 0H612V792H.00000912Z" fill-rule="evenodd"/>
</clipPath>
<clipPath id="clip_180">
<path transform="matrix(1,0,0,-1,0,792)" d="M.00000912 0H612V792H.00000912Z" fill-rule="evenodd"/>
</clipPath>
<clipPath id="clip_181">
<path transform="matrix(1,0,0,-1,0,792)" d="M.00000912 0H612V792H.00000912Z" fill-rule="evenodd"/>
</clipPath>
<clipPath id="clip_182">
<path transform="matrix(1,0,0,-1,0,792)" d="M.00000912 0H612V792H.00000912Z" fill-rule="evenodd"/>
</clipPath>
<clipPath id="clip_183">
<path transform="matrix(1,0,0,-1,0,792)" d="M.00000912 0H612V792H.00000912Z" fill-rule="evenodd"/>
</clipPath>
<clipPath id="clip_184">
<path transform="matrix(1,0,0,-1,0,792)" d="M.00000912 0H612V792H.00000912Z" fill-rule="evenodd"/>
</clipPath>
<clipPath id="clip_185">
<path transform="matrix(1,0,0,-1,0,792)" d="M.00000912 0H612V792H.00000912Z" fill-rule="evenodd"/>
</clipPath>
<clipPath id="clip_186">
<path transform="matrix(1,0,0,-1,0,792)" d="M.00000912 0H612V792H.00000912Z" fill-rule="evenodd"/>
</clipPath>
<clipPath id="clip_187">
<path transform="matrix(1,0,0,-1,0,792)" d="M.00000912 0H612V792H.00000912Z" fill-rule="evenodd"/>
</clipPath>
<clipPath id="clip_188">
<path transform="matrix(1,0,0,-1,0,792)" d="M.00000912 0H612V792H.00000912Z" fill-rule="evenodd"/>
</clipPath>
<clipPath id="clip_189">
<path transform="matrix(1,0,0,-1,0,792)" d="M.00000912 0H612V792H.00000912Z" fill-rule="evenodd"/>
</clipPath>
<clipPath id="clip_190">
<path transform="matrix(1,0,0,-1,0,792)" d="M.00000912 0H612V792H.00000912Z" fill-rule="evenodd"/>
</clipPath>
<clipPath id="clip_191">
<path transform="matrix(1,0,0,-1,0,792)" d="M.00000912 0H612V792H.00000912Z" fill-rule="evenodd"/>
</clipPath>
<clipPath id="clip_192">
<path transform="matrix(1,0,0,-1,0,792)" d="M.00000912 0H612V792H.00000912Z" fill-rule="evenodd"/>
</clipPath>
<clipPath id="clip_193">
<path transform="matrix(1,0,0,-1,0,792)" d="M.00000912 0H612V792H.00000912Z" fill-rule="evenodd"/>
</clipPath>
<clipPath id="clip_194">
<path transform="matrix(1,0,0,-1,0,792)" d="M.00000912 0H612V792H.00000912Z" fill-rule="evenodd"/>
</clipPath>
<clipPath id="clip_195">
<path transform="matrix(1,0,0,-1,0,792)" d="M.00000912 0H612V792H.00000912Z" fill-rule="evenodd"/>
</clipPath>
<clipPath id="clip_196">
<path transform="matrix(1,0,0,-1,0,792)" d="M.00000912 0H612V792H.00000912Z" fill-rule="evenodd"/>
</clipPath>
<clipPath id="clip_197">
<path transform="matrix(1,0,0,-1,0,792)" d="M.00000912 0H612V792H.00000912Z" fill-rule="evenodd"/>
</clipPath>
<clipPath id="clip_198">
<path transform="matrix(1,0,0,-1,0,792)" d="M.00000912 0H612V792H.00000912Z" fill-rule="evenodd"/>
</clipPath>
<clipPath id="clip_199">
<path transform="matrix(1,0,0,-1,0,792)" d="M.00000912 0H612V792H.00000912Z" fill-rule="evenodd"/>
</clipPath>
<clipPath id="clip_200">
<path transform="matrix(1,0,0,-1,0,792)" d="M.00000912 0H612V792H.00000912Z" fill-rule="evenodd"/>
</clipPath>
</defs>
<g>
<g clip-path="url(#clip_0)">
<text xml:space="preserve" transform="matrix(1 0 -0 1 0 792)" font-size="18" font-family="TimesNewRomanPS" font-weight="bold"><tspan y="-703.18" x="256.25 267.248 275.31199 284.31199 291.314 300.314 305.318 309.746 323.75 338.744 347.744">Feysal Omar</tspan></text>
</g>
<g clip-path="url(#clip_1)">
<text xml:space="preserve" transform="matrix(1 0 -0 1 0 792)" font-size="11.04" font-family="TimesNewRomanPSMT"><tspan y="-703.18" x="355.75"> </tspan></text>
</g>
<g clip-path="url(#clip_2)">
<text xml:space="preserve" transform="matrix(1 0 -0 1 0 792)" font-size="11.04" font-family="TimesNewRomanPSMT"><tspan y="-689.14" x="159.38 163.08945 168.60945 174.12946 179.64946 183.24849 188.7685 194.2885">(206)886</tspan></text>
</g>
<g clip-path="url(#clip_3)">
<text xml:space="preserve" transform="matrix(1 0 -0 1 0 792)" font-size="11.04" font-family="TimesNewRomanPSMT"><tspan y="-689.14" x="199.85">-</tspan></text>
</g>
<g clip-path="url(#clip_4)">
<text xml:space="preserve" transform="matrix(1 0 -0 1 0 792)" font-size="11.04" font-family="TimesNewRomanPSMT"><tspan y="-689.14" x="203.45 208.97 214.49 220.01001 225.53002 228.29001 232.154 234.914 241.00809 245.81049 251.33049 255.62505 260.44953 263.5628 268.96138 277.48423 282.386 286.11753 291.6375 297.03608 307.20393 312.6356 321.26887 326.17063 329.18455 332.29783 335.05784 339.9596 345.38023 354.0135 356.7735 360.6375 363.39753 371.29115 374.8902 379.79197 384.6054 387.7187 392.62046 396.24159 398.88017 405.0184 409.92018 414.82194 417.83586 420.94914 423.952 428.85377 431.61378 434.37379 444.81764">1689 &#x2022; Feysalomar68@gmail.com &#x2022; Greater Seattle, WA</tspan></text>
</g>
<g clip-path="url(#clip_5)">
<text xml:space="preserve" transform="matrix(1 0 -0 1 0 792)" font-size="11.04" font-family="TimesNewRomanPSMT"><tspan y="-689.14" x="452.74"> </tspan></text>
</g>
<g clip-path="url(#clip_6)">
<text xml:space="preserve" transform="matrix(1 0 -0 1 0 792)" font-size="11.04" font-family="TimesNewRomanPSMT"><tspan y="-676.42" x="265.49 272.23545 275.30458 280.82456 286.34455 291.27943 296.7994 300.39848">LinkedIn</tspan></text>
</g>
<g clip-path="url(#clip_7)">
<text xml:space="preserve" transform="matrix(1 0 -0 1 0 792)" font-size="11.04" font-family="TimesNewRomanPSMT"><tspan y="-676.42" x="305.93"> </tspan></text>
</g>
<g clip-path="url(#clip_8)">
<text xml:space="preserve" transform="matrix(1 0 -0 1 0 792)" font-size="11.04" font-family="TimesNewRomanPSMT"><tspan y="-676.42" x="308.69 310.73">| </tspan></text>
</g>
<g clip-path="url(#clip_9)">
<text xml:space="preserve" transform="matrix(1 0 -0 1 0 792)" font-size="11.04" font-family="TimesNewRomanPSMT"><tspan y="-676.42" x="313.49 321.40568 324.51896 327.63224 335.5479 341.0679">GitHub</tspan></text>
</g>
<g clip-path="url(#clip_10)">
<text xml:space="preserve" transform="matrix(1 0 -0 1 0 792)" font-size="11.04" font-family="TimesNewRomanPSMT"><tspan y="-676.42" x="346.63"> </tspan></text>
</g>
<g clip-path="url(#clip_11)">
<text xml:space="preserve" transform="matrix(1 0 -0 1 0 792)" font-size="11.04" font-family="TimesNewRomanPSMT"><tspan y="-676.42" x="349.27"> </tspan></text>
</g>
<path transform="matrix(1,0,0,-1,0,792)" d="M265.49 674.74H305.93V675.22H265.49Z" fill-rule="evenodd"/>
<path transform="matrix(1,0,0,-1,0,792)" d="M313.49 674.74H346.634V675.22H313.49Z" fill-rule="evenodd"/>
<g clip-path="url(#clip_12)">
<text xml:space="preserve" transform="matrix(1 0 -0 1 0 792)" font-size="11.04" font-family="TimesNewRomanPS" font-weight="bold"><tspan y="-663.82" x="72.024"> </tspan></text>
</g>
<g clip-path="url(#clip_13)">
<text xml:space="preserve" transform="matrix(1 0 -0 1 0 792)" font-size="11.04" font-family="TimesNewRomanPS" font-weight="bold"><tspan y="-651.1" x="72.024 79.93968 87.2592 94.57872 101.89824 109.92432 117.84 125.75568 133.0752 135.83519 141.97344 150.56256 154.90128 162.2208 169.54032">RELEVANT SKILLS</tspan></text>
</g>
<g clip-path="url(#clip_14)">
<text xml:space="preserve" transform="matrix(1 0 -0 1 0 792)" font-size="11.04" font-family="TimesNewRomanPS" font-weight="bold"><tspan y="-651.1" x="175.7"> </tspan></text>
</g>
<path transform="matrix(1,0,0,-1,0,792)" d="M72.024 572.02H239.684V648.7H72.024Z" fill="#ffffff" fill-rule="evenodd"/>
<g clip-path="url(#clip_15)">
<path transform="matrix(1,0,0,-1,0,792)" d="M77.424 635.98H234.284V648.69998H77.424Z" fill="#ffffff" fill-rule="evenodd"/>
<g clip-path="url(#clip_16)">
<text xml:space="preserve" transform="matrix(1 0 -0 1 0 792)" font-size="11.04" font-family="TimesNewRomanPSMT"><tspan y="-638.5" x="77.424"> </tspan></text>
</g>
<path transform="matrix(1,0,0,-1,0,792)" d="M77.424 623.38H234.284V635.98H77.424Z" fill="#ffffff" fill-rule="evenodd"/>
<g clip-path="url(#clip_17)">
<text xml:space="preserve" transform="matrix(1 0 -0 1 0 792)" font-size="11.04" font-family="TimesNewRomanPSMT"><tspan y="-625.78" x="81.144">&#x2022;</tspan></text>
</g>
<g clip-path="url(#clip_18)">
<text xml:space="preserve" transform="matrix(1 0 -0 1 0 792)" font-size="11.04" font-family="ArialMT"><tspan y="-625.78" x="84.984"> </tspan></text>
</g>
<g clip-path="url(#clip_19)">
<text xml:space="preserve" transform="matrix(1 0 -0 1 0 792)" font-size="11.04" font-family="TimesNewRomanPSMT"><tspan y="-625.78" x="99.144 108.95856 112.09392 116.896327 120.60577 126.12576 130.42032 135.84096 139.5504 142.55329 145.31328 153.22896 156.9384 160.53743 163.65071 168.55248 173.36592 176.12592 182.26416 187.78417 190.76497 193.87825">Microsoft Office Suite</tspan></text>
</g>
<g clip-path="url(#clip_20)">
<text xml:space="preserve" transform="matrix(1 0 -0 1 0 792)" font-size="11.04" font-family="TimesNewRomanPSMT"><tspan y="-625.78" x="198.77"> </tspan></text>
</g>
<path transform="matrix(1,0,0,-1,0,792)" d="M77.424 610.78H234.284V623.38H77.424Z" fill="#ffffff" fill-rule="evenodd"/>
<g clip-path="url(#clip_21)">
<text xml:space="preserve" transform="matrix(1 0 -0 1 0 792)" font-size="11.04" font-family="TimesNewRomanPSMT"><tspan y="-613.18" x="81.144">&#x2022;</tspan></text>
</g>
<g clip-path="url(#clip_22)">
<text xml:space="preserve" transform="matrix(1 0 -0 1 0 792)" font-size="11.04" font-family="ArialMT"><tspan y="-613.18" x="84.984"> </tspan></text>
</g>
<g clip-path="url(#clip_23)">
<text xml:space="preserve" transform="matrix(1 0 -0 1 0 792)" font-size="11.04" font-family="TimesNewRomanPSMT"><tspan y="-613.18" x="99.144 107.05968 110.76912 114.47856 117.481449 122.38321 127.30705 130.06705 135.58705 141.10706">Office 365</tspan></text>
</g>
<g clip-path="url(#clip_24)">
<text xml:space="preserve" transform="matrix(1 0 -0 1 0 792)" font-size="11.04" font-family="TimesNewRomanPSMT"><tspan y="-613.18" x="146.54"> </tspan></text>
</g>
<path transform="matrix(1,0,0,-1,0,792)" d="M77.424 598.06H234.284V610.77999H77.424Z" fill="#ffffff" fill-rule="evenodd"/>
<g clip-path="url(#clip_25)">
<text xml:space="preserve" transform="matrix(1 0 -0 1 0 792)" font-size="11.04" font-family="TimesNewRomanPSMT"><tspan y="-600.58" x="81.144">&#x2022;</tspan></text>
</g>
<g clip-path="url(#clip_26)">
<text xml:space="preserve" transform="matrix(1 0 -0 1 0 792)" font-size="11.04" font-family="ArialMT"><tspan y="-600.58" x="84.984"> </tspan></text>
</g>
<g clip-path="url(#clip_27)">
<text xml:space="preserve" transform="matrix(1 0 -0 1 0 792)" font-size="11.04" font-family="TimesNewRomanPSMT"><tspan y="-600.58" x="99.144 105.889438 111.40943 116.92943">Zoom</tspan></text>
</g>
<g clip-path="url(#clip_28)">
<text xml:space="preserve" transform="matrix(1 0 -0 1 0 792)" font-size="11.04" font-family="TimesNewRomanPSMT"><tspan y="-600.58" x="125.42"> </tspan></text>
</g>
<path transform="matrix(1,0,0,-1,0,792)" d="M77.424 585.46H234.284V598.06H77.424Z" fill="#ffffff" fill-rule="evenodd"/>
<g clip-path="url(#clip_29)">
<text xml:space="preserve" transform="matrix(1 0 -0 1 0 792)" font-size="11.04" font-family="TimesNewRomanPSMT"><tspan y="-587.86" x="81.144">&#x2022;</tspan></text>
</g>
<g clip-path="url(#clip_30)">
<text xml:space="preserve" transform="matrix(1 0 -0 1 0 792)" font-size="11.04" font-family="ArialMT"><tspan y="-587.86" x="84.984"> </tspan></text>
</g>
<g clip-path="url(#clip_31)">
<text xml:space="preserve" transform="matrix(1 0 -0 1 0 792)" font-size="11.04" font-family="TimesNewRomanPSMT"><tspan y="-587.86" x="99.144 106.46352 111.98351 115.096797 118.210079 123.01248 128.53249 134.05249 137.76194 142.56433 145.56722 148.6805 154.2005">Collaboration</tspan></text>
</g>
<g clip-path="url(#clip_32)">
<text xml:space="preserve" transform="matrix(1 0 -0 1 0 792)" font-size="11.04" font-family="TimesNewRomanPSMT"><tspan y="-587.86" x="159.62"> </tspan></text>
</g>
<path transform="matrix(1,0,0,-1,0,792)" d="M77.424 572.02H234.284V585.46H77.424Z" fill="#ffffff" fill-rule="evenodd"/>
<g clip-path="url(#clip_33)">
<text xml:space="preserve" transform="matrix(1 0 -0 1 0 792)" font-size="11.04" font-family="Calibri"><tspan y="-575.02" x="77.424"> </tspan></text>
</g>
</g>
<path transform="matrix(1,0,0,-1,0,792)" d="M239.69 572.02H378.43V648.7H239.69Z" fill="#ffffff" fill-rule="evenodd"/>
<g clip-path="url(#clip_34)">
<path transform="matrix(1,0,0,-1,0,792)" d="M245.09 635.98H372.91V648.69998H245.09Z" fill="#ffffff" fill-rule="evenodd"/>
<g clip-path="url(#clip_35)">
<text xml:space="preserve" transform="matrix(1 0 -0 1 0 792)" font-size="11.04" font-family="TimesNewRomanPSMT"><tspan y="-638.5" x="245.09"> </tspan></text>
</g>
<path transform="matrix(1,0,0,-1,0,792)" d="M245.09 623.38H372.91V635.98H245.09Z" fill="#ffffff" fill-rule="evenodd"/>
<g clip-path="url(#clip_36)">
<text xml:space="preserve" transform="matrix(1 0 -0 1 0 792)" font-size="11.04" font-family="TimesNewRomanPSMT"><tspan y="-625.78" x="242.81">&#x2022;</tspan></text>
</g>
<g clip-path="url(#clip_37)">
<text xml:space="preserve" transform="matrix(1 0 -0 1 0 792)" font-size="11.04" font-family="ArialMT"><tspan y="-625.78" x="246.65"> </tspan></text>
</g>
<g clip-path="url(#clip_38)">
<text xml:space="preserve" transform="matrix(1 0 -0 1 0 792)" font-size="11.04" font-family="TimesNewRomanPSMT"><tspan y="-625.78" x="260.81 268.72569 274.24568 279.14744 282.27177 285.27464 288.3879 293.9079 296.6679 304.5836 308.77879 313.07334 318.59333 322.32487 327.12727 332.64726 337.549">Quality Assurance</tspan></text>
</g>
<g clip-path="url(#clip_39)">
<text xml:space="preserve" transform="matrix(1 0 -0 1 0 792)" font-size="11.04" font-family="TimesNewRomanPSMT"><tspan y="-625.78" x="342.43"> </tspan></text>
</g>
<path transform="matrix(1,0,0,-1,0,792)" d="M245.09 610.78H372.91V623.38H245.09Z" fill="#ffffff" fill-rule="evenodd"/>
<g clip-path="url(#clip_40)">
<text xml:space="preserve" transform="matrix(1 0 -0 1 0 792)" font-size="11.04" font-family="TimesNewRomanPSMT"><tspan y="-613.18" x="242.81">&#x2022;</tspan></text>
</g>
<g clip-path="url(#clip_41)">
<text xml:space="preserve" transform="matrix(1 0 -0 1 0 792)" font-size="11.04" font-family="ArialMT"><tspan y="-613.18" x="246.65"> </tspan></text>
</g>
<g clip-path="url(#clip_42)">
<text xml:space="preserve" transform="matrix(1 0 -0 1 0 792)" font-size="11.04" font-family="TimesNewRomanPSMT"><tspan y="-613.18" x="260.81 266.94825 272.46824 276.14457 279.27995 287.19563 291.99803 295.70747 300.60923 303.36924 310.1147 314.90605 319.2006 322.22557 325.33885 330.85884">Software Testing</tspan></text>
</g>
<g clip-path="url(#clip_43)">
<text xml:space="preserve" transform="matrix(1 0 -0 1 0 792)" font-size="11.04" font-family="TimesNewRomanPSMT"><tspan y="-613.18" x="336.31"> </tspan></text>
</g>
<path transform="matrix(1,0,0,-1,0,792)" d="M245.09 598.06H372.91V610.77999H245.09Z" fill="#ffffff" fill-rule="evenodd"/>
<g clip-path="url(#clip_44)">
<text xml:space="preserve" transform="matrix(1 0 -0 1 0 792)" font-size="11.04" font-family="TimesNewRomanPSMT"><tspan y="-600.58" x="242.81">&#x2022;</tspan></text>
</g>
<g clip-path="url(#clip_45)">
<text xml:space="preserve" transform="matrix(1 0 -0 1 0 792)" font-size="11.04" font-family="ArialMT"><tspan y="-600.58" x="246.65"> </tspan></text>
</g>
<g clip-path="url(#clip_46)">
<text xml:space="preserve" transform="matrix(1 0 -0 1 0 792)" font-size="11.04" font-family="TimesNewRomanPSMT"><tspan y="-600.58" x="260.81 268.72569 275.47114 285.2857 292.03117 294.79118 297.8603 300.6203 307.98399 314.0891">HTML / CSS</tspan></text>
</g>
<g clip-path="url(#clip_47)">
<text xml:space="preserve" transform="matrix(1 0 -0 1 0 792)" font-size="11.04" font-family="TimesNewRomanPSMT"><tspan y="-600.58" x="320.11"> </tspan></text>
</g>
<path transform="matrix(1,0,0,-1,0,792)" d="M245.09 585.46H372.91V598.06H245.09Z" fill="#ffffff" fill-rule="evenodd"/>
<g clip-path="url(#clip_48)">
<text xml:space="preserve" transform="matrix(1 0 -0 1 0 792)" font-size="11.04" font-family="TimesNewRomanPSMT"><tspan y="-587.86" x="242.81">&#x2022;</tspan></text>
</g>
<g clip-path="url(#clip_49)">
<text xml:space="preserve" transform="matrix(1 0 -0 1 0 792)" font-size="11.04" font-family="ArialMT"><tspan y="-587.86" x="246.65"> </tspan></text>
</g>
<g clip-path="url(#clip_50)">
<text xml:space="preserve" transform="matrix(1 0 -0 1 0 792)" font-size="11.04" font-family="TimesNewRomanPSMT"><tspan y="-587.86" x="260.81 267.55546 272.4572 277.35899 282.87898 288.39897 293.80854 296.9218 302.4418 307.9618 313.48179 316.2418 322.98725 328.3637 333.8837 338.78547 343.5989 346.7122 349.82548 355.22404">Technology Education</tspan></text>
</g>
<g clip-path="url(#clip_51)">
<text xml:space="preserve" transform="matrix(1 0 -0 1 0 792)" font-size="11.04" font-family="TimesNewRomanPSMT"><tspan y="-587.86" x="360.67"> </tspan></text>
</g>
<path transform="matrix(1,0,0,-1,0,792)" d="M245.09 572.02H372.91V585.46H245.09Z" fill="#ffffff" fill-rule="evenodd"/>
<g clip-path="url(#clip_52)">
<text xml:space="preserve" transform="matrix(1 0 -0 1 0 792)" font-size="11.04" font-family="Calibri"><tspan y="-575.02" x="245.09"> </tspan></text>
</g>
</g>
<path transform="matrix(1,0,0,-1,0,792)" d="M378.43 572.02H545.49V648.7H378.43Z" fill="#ffffff" fill-rule="evenodd"/>
<g clip-path="url(#clip_53)">
<path transform="matrix(1,0,0,-1,0,792)" d="M383.71 635.98H540.08999V648.69998H383.71Z" fill="#ffffff" fill-rule="evenodd"/>
<g clip-path="url(#clip_54)">
<text xml:space="preserve" transform="matrix(1 0 -0 1 0 792)" font-size="11.04" font-family="TimesNewRomanPSMT"><tspan y="-638.5" x="383.71"> </tspan></text>
</g>
<path transform="matrix(1,0,0,-1,0,792)" d="M383.71 623.38H540.08999V635.98H383.71Z" fill="#ffffff" fill-rule="evenodd"/>
<g clip-path="url(#clip_55)">
<text xml:space="preserve" transform="matrix(1 0 -0 1 0 792)" font-size="11.04" font-family="TimesNewRomanPSMT"><tspan y="-625.78" x="388.99">&#x2022;</tspan></text>
</g>
<g clip-path="url(#clip_56)">
<text xml:space="preserve" transform="matrix(1 0 -0 1 0 792)" font-size="11.04" font-family="ArialMT"><tspan y="-625.78" x="392.83"> </tspan></text>
</g>
<g clip-path="url(#clip_57)">
<text xml:space="preserve" transform="matrix(1 0 -0 1 0 792)" font-size="11.04" font-family="TimesNewRomanPSMT"><tspan y="-625.78" x="406.99 413.12825 416.80458 422.32456 425.45994 430.26234 435.1641 438.28843 441.04844 448.36796 453.7665 459.2865 462.99595 468.3945 471.50779 477.02778 481.83018 484.94346 488.05674 493.4553">Project Coordination</tspan></text>
</g>
<g clip-path="url(#clip_58)">
<text xml:space="preserve" transform="matrix(1 0 -0 1 0 792)" font-size="11.04" font-family="TimesNewRomanPSMT"><tspan y="-625.78" x="498.94"> </tspan></text>
</g>
<path transform="matrix(1,0,0,-1,0,792)" d="M383.71 610.78H540.08999V623.38H383.71Z" fill="#ffffff" fill-rule="evenodd"/>
<g clip-path="url(#clip_59)">
<text xml:space="preserve" transform="matrix(1 0 -0 1 0 792)" font-size="11.04" font-family="TimesNewRomanPSMT"><tspan y="-613.18" x="388.99">&#x2022;</tspan></text>
</g>
<g clip-path="url(#clip_60)">
<text xml:space="preserve" transform="matrix(1 0 -0 1 0 792)" font-size="11.04" font-family="ArialMT"><tspan y="-613.18" x="392.83"> </tspan></text>
</g>
<g clip-path="url(#clip_61)">
<text xml:space="preserve" transform="matrix(1 0 -0 1 0 792)" font-size="11.04" font-family="TimesNewRomanPSMT"><tspan y="-613.18" x="406.99 414.3095 419.8295 424.12406 427.25944 432.658 441.29127 446.09367 449.8031 452.5631 458.70137 463.60313 467.20219 472.72218 475.83546 480.63786">Customer Service</tspan></text>
</g>
<g clip-path="url(#clip_62)">
<text xml:space="preserve" transform="matrix(1 0 -0 1 0 792)" font-size="11.04" font-family="TimesNewRomanPSMT"><tspan y="-613.18" x="485.5"> </tspan></text>
</g>
<path transform="matrix(1,0,0,-1,0,792)" d="M383.71 598.06H540.08999V610.77999H383.71Z" fill="#ffffff" fill-rule="evenodd"/>
<g clip-path="url(#clip_63)">
<text xml:space="preserve" transform="matrix(1 0 -0 1 0 792)" font-size="11.04" font-family="TimesNewRomanPSMT"><tspan y="-600.58" x="388.99">&#x2022;</tspan></text>
</g>
<g clip-path="url(#clip_64)">
<text xml:space="preserve" transform="matrix(1 0 -0 1 0 792)" font-size="11.04" font-family="ArialMT"><tspan y="-600.58" x="392.83"> </tspan></text>
</g>
<g clip-path="url(#clip_65)">
<text xml:space="preserve" transform="matrix(1 0 -0 1 0 792)" font-size="11.04" font-family="TimesNewRomanPSMT"><tspan y="-600.58" x="406.99 414.3095 419.8295 424.12406 427.25944 432.77943 437.58183 441.87638 446.2151 448.9751 456.29463 461.69319 470.32646 478.8493 484.3693 489.88929 492.89216 497.7939 502.71778 505.72065 508.83393 514.35397">Business Communication</tspan></text>
</g>
<g clip-path="url(#clip_66)">
<text xml:space="preserve" transform="matrix(1 0 -0 1 0 792)" font-size="11.04" font-family="TimesNewRomanPSMT"><tspan y="-600.58" x="519.82"> </tspan></text>
</g>
<path transform="matrix(1,0,0,-1,0,792)" d="M383.71 585.22H540.08999V598.06H383.71Z" fill="#ffffff" fill-rule="evenodd"/>
<g clip-path="url(#clip_67)">
<text xml:space="preserve" transform="matrix(1 0 -0 1 0 792)" font-size="11.04" font-family="Calibri"><tspan y="-587.62" x="388.99">&#x2022;</tspan></text>
</g>
<g clip-path="url(#clip_68)">
<text xml:space="preserve" transform="matrix(1 0 -0 1 0 792)" font-size="11.04" font-family="ArialMT"><tspan y="-587.62" x="394.51"> </tspan></text>
</g>
<g clip-path="url(#clip_69)">
<text xml:space="preserve" transform="matrix(1 0 -0 1 0 792)" font-size="11.04" font-family="TimesNewRomanPSMT"><tspan y="-587.62" x="406.99 413.73545 416.80458 425.34953 430.25129 433.0113 442.85899 447.66139 453.18138 458.08314 463.60313 468.41658 477.04985 481.85224 487.37223">Time Management</tspan></text>
</g>
<g clip-path="url(#clip_70)">
<text xml:space="preserve" transform="matrix(1 0 -0 1 0 792)" font-size="11.04" font-family="Calibri"><tspan y="-587.62" x="490.42"> </tspan></text>
</g>
</g>
<g clip-path="url(#clip_71)">
<text xml:space="preserve" transform="matrix(1 0 -0 1 0 792)" font-size="11.04" font-family="TimesNewRomanPS" font-weight="bold"><tspan y="-561.82" x="72.024"> </tspan></text>
</g>
<g clip-path="url(#clip_72)">
<text xml:space="preserve" transform="matrix(1 0 -0 1 0 792)" font-size="11.04" font-family="TimesNewRomanPS" font-weight="bold"><tspan y="-549.22" x="72.024 79.34352 87.2592 94.00464 101.30208 109.21776 113.51232 120.876 128.78064 136.69632">EXPERIENCE</tspan></text>
</g>
<g clip-path="url(#clip_73)">
<text xml:space="preserve" transform="matrix(1 0 -0 1 0 792)" font-size="11.04" font-family="TimesNewRomanPS" font-weight="bold"><tspan y="-549.22" x="144.14"> </tspan></text>
</g>
<g clip-path="url(#clip_74)">
<text xml:space="preserve" transform="matrix(1 0 -0 1 0 792)" font-size="11.04" font-family="TimesNewRomanPS" font-weight="bold"><tspan y="-536.47" x="72.024 82.44576 85.57008 90.37249 95.274257 100.79425 105.12193 110.52049 114.229938 117.93938">Microsoft </tspan></text>
</g>
<g clip-path="url(#clip_75)">
<text xml:space="preserve" transform="matrix(1 0 -0 1 0 792)" font-size="11.04" font-family="TimesNewRomanPSMT"><tspan y="-536.47" x="120.74 122.78">| </tspan></text>
</g>
<g clip-path="url(#clip_76)">
<text xml:space="preserve" transform="matrix(1 0 -0 1 0 792)" font-size="11.04" font-family="TimesNewRomanPS" font-style="italic"><tspan y="-536.47" x="125.54 132.28545 137.18721 142.70722 150.6229 156.1429 164.05858 169.57859 172.33858 175.09857 184.32802">Redmomd, WA</tspan></text>
</g>
<g clip-path="url(#clip_77)">
<text xml:space="preserve" transform="matrix(1 0 -0 1 0 792)" font-size="11.04" font-family="TimesNewRomanPSMT"><tspan y="-536.47" x="190.97"> </tspan></text>
</g>
<g clip-path="url(#clip_78)">
<text xml:space="preserve" transform="matrix(1 0 -0 1 0 792)" font-size="11.04" font-family="TimesNewRomanPSMT"><tspan y="-536.47" x="484.78 492.69569 498.21568 501.9251 505.0384 508.04127 510.80128 516.3213 521.8413 527.3613 532.88137">April 2023 </tspan></text>
</g>
<g clip-path="url(#clip_79)">
<text xml:space="preserve" transform="matrix(1 0 -0 1 0 792)" font-size="11.04" font-family="TimesNewRomanPSMT"><tspan y="-536.47" x="535.66">&#x2013;</tspan></text>
</g>
<g clip-path="url(#clip_80)">
<text xml:space="preserve" transform="matrix(1 0 -0 1 0 792)" font-size="11.04" font-family="TimesNewRomanPSMT"><tspan y="-536.47" x="541.06"> </tspan></text>
</g>
<g clip-path="url(#clip_81)">
<text xml:space="preserve" transform="matrix(1 0 -0 1 0 792)" font-size="11.04" font-family="TimesNewRomanPSMT"><tspan y="-536.47" x="543.82 549.95828 553.6346 558.45907 562.7536 567.6885 573.08706">Present</tspan></text>
</g>
<g clip-path="url(#clip_82)">
<text xml:space="preserve" transform="matrix(1 0 -0 1 0 792)" font-size="11.04" font-family="TimesNewRomanPSMT"><tspan y="-536.47" x="576.1"> </tspan></text>
</g>
<g clip-path="url(#clip_83)">
</g>
<g clip-path="url(#clip_84)">
<text xml:space="preserve" transform="matrix(1 0 -0 1 0 792)" font-size="11.04" font-family="TimesNewRomanPS" font-style="italic"><tspan y="-523.87" x="72.024 78.16224 83.682239 89.20223 91.962238 95.03136 99.86688 104.161449 107.29681 109.93537 114.837139 120.35713 125.87713 128.89104 134.41104 139.3128 144.23665">Lab test engineer</tspan></text>
</g>
<g clip-path="url(#clip_85)">
<text xml:space="preserve" transform="matrix(1 0 -0 1 0 792)" font-size="11.04" font-family="TimesNewRomanPSMT"><tspan y="-523.87" x="148.46"> </tspan></text>
</g>
<g clip-path="url(#clip_86)">
</g>
<g clip-path="url(#clip_87)">
<text xml:space="preserve" transform="matrix(1 0 -0 1 0 792)" font-size="11.04" font-family="TimesNewRomanPSMT"><tspan y="-511.15" x="90.024">&#x2022;</tspan></text>
</g>
<g clip-path="url(#clip_88)">
<text xml:space="preserve" transform="matrix(1 0 -0 1 0 792)" font-size="11.04" font-family="ArialMT"><tspan y="-511.15" x="93.864"> </tspan></text>
</g>
<g clip-path="url(#clip_89)">
<text xml:space="preserve" transform="matrix(1 0 -0 1 0 792)" font-size="11.04" font-family="TimesNewRomanPSMT"><tspan y="-511.15" x="108.02 115.339519 120.85951 123.619518 128.52127 134.04128 139.56128 145.08129 150.60129 155.41474 158.52802 161.5309 167.0509 172.5709 175.3309 178.92993 182.04322 187.56322 192.96178 196.67122 202.19123 207.71123 212.00579 214.66641 223.2997 228.1021 233.6221 239.1421 244.04387 247.1682 249.80675 252.92003 257.82179 262.03907 265.15235 268.1552 273.6752 279.1952 281.9552 284.7152 288.31428 291.07429 299.59715 304.4989 307.51283 310.6261 315.52787 320.9485 324.06178 329.58177 335.10176 339.29695 342.41023 347.9302 350.5688 356.08879 361.60877 366.51054 372.03053 377.5505 382.36396 386.0734 390.97517 396.49516 399.1558 404.05757 406.81758 411.03486 414.14814 419.66813 425.1881 428.19099 431.90043 434.9033 439.80506 444.7289 450.12748 453.24076 456.00077 461.52076 467.04075 472.4393 475.1993 478.3126 483.83259 486.5926 489.59547 495.11546 500.0172">By conducting rigorous manual testing, I meticulously uncovered a significant bug in the </tspan></text>
</g>
<g clip-path="url(#clip_90)">
</g>
<g clip-path="url(#clip_91)">
<text xml:space="preserve" transform="matrix(1 0 -0 1 0 792)" font-size="11.04" font-family="TimesNewRomanPSMT"><tspan y="-498.55" x="108.02 112.31456 117.83456 121.56608 124.67936 132.48464 137.3864 141.11792 146.01969 148.68032 151.4403 156.34207 159.35599 162.46927 167.98928 175.90496 178.90784 184.42784 189.94785 192.5864 201.21968 206.12145 208.88144 211.89536 217.41536 220.17536 225.69536 229.29439 234.81439 240.3344 243.44768 248.96768 253.86945 256.5301 261.43186 266.3557 271.1581 276.6781 280.38755 285.18995 288.30323 293.205 295.86564 300.7674 306.28739 311.80738 314.56739 318.89506 324.2936 329.19538 334.00883 337.1221 340.72117 343.83445 348.7362 351.39686 354.51014 360.03013 363.73957 369.13813 372.84757 381.37043 386.2722 389.2861 392.39939 397.91938 403.43937 406.07795 409.19123 414.7112 417.3498 420.46308 425.98307 430.88484 433.64485 439.16484 444.58546 450.10545 452.86546 456.5749 461.3773 466.89729 472.29585 476.00529 479.11857 481.87858 484.51716 494.33174 499.8517 502.61174 506.95045 514.75576 517.869 521.4681 524.58139">software, allowing me to provide accurate and specific information in the bug report. My swift </tspan></text>
</g>
<g clip-path="url(#clip_92)">
</g>
<g clip-path="url(#clip_93)">
<text xml:space="preserve" transform="matrix(1 0 -0 1 0 792)" font-size="11.04" font-family="TimesNewRomanPSMT"><tspan y="-485.95" x="108.02 112.92176 117.845607 120.84849 123.96177 129.48177 135.00177 137.76177 142.56417 148.08417 153.60417 156.36417 161.16657 164.27985 169.18161 173.99506 177.7045 180.4645 185.9845 191.5045 196.3069 201.8269 210.3498 215.25156 220.77156 223.78548 228.58788 231.70116 234.81444 240.33444 245.85445 248.493 252.20244">action and clear documentation fa</tspan></text>
</g>
<g clip-path="url(#clip_94)">
<text xml:space="preserve" transform="matrix(1 0 -0 1 0 792)" font-size="11.04" font-family="TimesNewRomanPSMT"><tspan y="-485.95" x="257.09 261.99177 265.00569 268.11897 271.12184 274.2351 279.0375 282.1508 287.05256 292.57255 295.33256 300.2564 302.895 308.41499 312.12443 317.52299 326.15626 331.5548 334.6681 337.4281 341.02717 345.92893 350.1462 355.6662 358.77949 364.29948 367.30235 370.41563 375.9356 381.4556 384.2156 386.8542 390.56364 395.36604 399.66059 405.18058 408.20555 411.31883 414.4321 419.83067 425.35066 428.11067 431.22395 436.74394 439.3825 444.28428 449.80427 452.56428 457.48814 462.8867 468.28526 473.187 478.707 483.63087 488.53263 494.0526 496.71327 501.0078 506.5278 510.14894 513.2622 521.1779 526.07968 529.7008 534.60256">cilitated a prompt resolution, resulting in an enhanced software </tspan></text>
</g>
<g clip-path="url(#clip_95)">
</g>
<g clip-path="url(#clip_96)">
<text xml:space="preserve" transform="matrix(1 0 -0 1 0 792)" font-size="11.04" font-family="TimesNewRomanPSMT"><tspan y="-473.23" x="108.02 113.53999 118.44176 122.17328 125.77232 131.29233 134.89136 143.52465 148.4264 153.84705 158.74881 163.67266 166.43265 171.33441 176.75505 182.27506 185.03505 189.93682 195.45682 198.11745 201.23073 209.75362 215.27362 218.98307 224.50307 229.90163 234.80339 240.3234 243.08339 248.6034 252.93108 257.73347 261.4429 264.2029 269.10469 274.5253 280.0453 284.94706 288.56819 291.68147 296.58323 302.00386 306.9056 311.82948 314.58949">performance and an improved user experience. </tspan></text>
</g>
<g clip-path="url(#clip_97)">
<text xml:space="preserve" transform="matrix(1 0 -0 1 0 792)" font-size="11.04" font-family="TimesNewRomanPSMT"><tspan y="-473.23" x="317.33"> </tspan></text>
</g>
<g clip-path="url(#clip_98)">
</g>
<g clip-path="url(#clip_99)">
<text xml:space="preserve" transform="matrix(1 0 -0 1 0 792)" font-size="11.04" font-family="TimesNewRomanPSMT"><tspan y="-460.63" x="72.024"> </tspan></text>
</g>
<g clip-path="url(#clip_100)">
</g>
<g clip-path="url(#clip_101)">
<text xml:space="preserve" transform="matrix(1 0 -0 1 0 792)" font-size="11.04" font-family="TimesNewRomanPSMT"><tspan y="-447.91" x="90.024">&#x2022;</tspan></text>
</g>
<g clip-path="url(#clip_102)">
<text xml:space="preserve" transform="matrix(1 0 -0 1 0 792)" font-size="11.04" font-family="ArialMT"><tspan y="-447.91" x="93.864"> </tspan></text>
</g>
<g clip-path="url(#clip_103)">
<text xml:space="preserve" transform="matrix(1 0 -0 1 0 792)" font-size="11.04" font-family="TimesNewRomanPSMT"><tspan y="-447.91" x="108.02 114.765438 120.28543 123.961757 129.48175 135.00176 140.52176 146.04177 148.7024 153.60416 156.36415 161.288 166.68656 175.31984 180.7184 183.83168 189.35169 194.15409 197.26737 200.38065 205.90065 211.29921 214.0592 219.57921 223.28865 225.9272 230.7296 236.2496 239.36289 244.76145 253.39473 258.29649 261.3104 264.42369 269.94367 275.46366 278.10224 283.004 288.524 294.04399 296.70463 305.3379 310.23966 315.75965 321.18028 326.08204 329.20637 331.84495 334.95823 339.86 344.07728 347.08015 350.083 355.603 361.123 363.883 366.643 370.24208 373.00209 376.11537 381.63536 386.5371 391.95774 395.071 398.07389 401.78334 404.7862 409.68797 415.20796 417.96797 422.8918 428.4118 433.81037 436.57038 440.27983 445.18159 450.6022 456.1222 459.72126 462.83454 467.63694 473.15693 475.91694 480.8187 483.5787 487.90638 490.90925 496.42924 501.94923 504.9521 508.66154 511.6644 516.56619 521.49 526.88858 530.00186">Through a combination of automation and manual testing, I identified and reported a significant </tspan></text>
</g>
<g clip-path="url(#clip_104)">
</g>
<g clip-path="url(#clip_105)">
<text xml:space="preserve" transform="matrix(1 0 -0 1 0 792)" font-size="11.04" font-family="TimesNewRomanPSMT"><tspan y="-435.31" x="108.02 112.31456 117.83456 121.56608 124.67936 132.48464 137.3864 141.11792 146.01969 148.68032 154.20032 159.72032 165.24033 168.00032 170.76032 178.07984 183.59984 186.35984 191.75839 195.46784 200.98784 206.3864 209.49968 215.01969 218.02257 223.54257 228.94113 231.70113 237.22113 240.93058 245.83234 250.64579 253.75907 257.95426 262.85603 265.61604 271.13603 276.656 282.176 284.83665 288.54609 293.44786 298.96784 304.38847 308.0979 311.10078 315.39533 318.15534 326.12623 329.09599 332.20927 337.72926 340.48927 346.00926 350.81166 353.92494 358.8267 361.8406 364.9539 369.85566 375.37565 378.0363 382.33085 385.3558 390.25758 395.77757 400.10523 402.7438 407.64558 413.16557 418.68556 421.44557 425.06669 429.96846 432.98237 437.88414 443.4041 448.32798 453.72654 456.8398 459.59983 465.1198 469.9222 472.92509 477.82685 480.58686 483.34687 486.4712 491.99119 496.79359">software bug. By providing precise bug reports with detailed steps and relevant data, the </tspan></text>
</g>
<g clip-path="url(#clip_106)">
</g>
<g clip-path="url(#clip_107)">
<text xml:space="preserve" transform="matrix(1 0 -0 1 0 792)" font-size="11.04" font-family="TimesNewRomanPSMT"><tspan y="-422.59" x="108.02 113.53999 118.44176 123.961757 128.88559 131.88848 137.40848 142.92848 151.45137 156.35314 161.77378 164.88706 167.64705 170.76033 175.56273 180.4645 188.99842 191.7584 196.05297 204.02385 206.9936 210.70305 213.70594 216.81922 222.33922 225.09922 228.69824 233.6 237.92769 243.4477 246.56098 251.95954 256.8613 262.3813 265.04194 268.1552 273.6752 278.57698 281.2376 284.3509 288.64546 292.98417 298.38273 303.2845 306.0445 308.8045 313.72837 319.12693 324.6469 329.54869 335.06867 339.8821 342.9954 348.39396 353.91395 356.67396 359.78724 365.30723 370.20899 372.86964 377.16419 382.68418 386.3053 389.41859 397.33427 402.23603 405.85716 410.7589 412.70198 416.99653">development team swiftly resolved the issue, enhancing the software's </tspan></text>
</g>
<g clip-path="url(#clip_108)">
<text xml:space="preserve" transform="matrix(1 0 -0 1 0 792)" font-size="11.04" font-family="TimesNewRomanPSMT"><tspan y="-422.59" x="419.95 423.65946 429.17945 434.578 439.47978 442.49369 445.60697 451.12696 456.64695 461.44935 464.56263 467.5655 470.56837 476.08836 478.84837 483.75013 489.2701 494.7901">functionality and </tspan></text>
</g>
<g clip-path="url(#clip_109)">
</g>
<g clip-path="url(#clip_110)">
<text xml:space="preserve" transform="matrix(1 0 -0 1 0 792)" font-size="11.04" font-family="TimesNewRomanPSMT"><tspan y="-409.99" x="108.02 111.72944 116.6312 119.64513 122.75841 127.66017 133.08081 136.19409 139.19698 142.31026 145.31314 150.83315 153.59314 157.30258 162.70114 166.41059 169.17058 174.07234 176.73297 181.02753 185.96242 190.76482 199.3981 202.40099 207.30275 211.63043 215.92499 218.58562 224.10562 228.30081 233.20258 236.9341 239.69409 244.59586 250.0165 255.5365 260.43827 264.0594 267.17268 272.07444 277.49507 282.39683 287.32069 290.0807">reliability for a seamless user experience. </tspan></text>
</g>
<g clip-path="url(#clip_111)">
<text xml:space="preserve" transform="matrix(1 0 -0 1 0 792)" font-size="11.04" font-family="TimesNewRomanPSMT"><tspan y="-409.99" x="292.85"> </tspan></text>
</g>
<g clip-path="url(#clip_112)">
</g>
<g clip-path="url(#clip_113)">
<text xml:space="preserve" transform="matrix(1 0 -0 1 0 792)" font-size="11.04" font-family="TimesNewRomanPSMT"><tspan y="-397.39" x="72.024"> </tspan></text>
</g>
<g clip-path="url(#clip_114)">
</g>
<g clip-path="url(#clip_115)">
<text xml:space="preserve" transform="matrix(1 0 -0 1 0 792)" font-size="11.04" font-family="TimesNewRomanPSMT"><tspan y="-384.67" x="90.024">&#x2022;</tspan></text>
</g>
<g clip-path="url(#clip_116)">
<text xml:space="preserve" transform="matrix(1 0 -0 1 0 792)" font-size="11.04" font-family="ArialMT"><tspan y="-384.67" x="93.864"> </tspan></text>
</g>
<g clip-path="url(#clip_117)">
<text xml:space="preserve" transform="matrix(1 0 -0 1 0 792)" font-size="11.04" font-family="TimesNewRomanPSMT"><tspan y="-384.67" x="108.02 118.44176 121.45568 124.56896 130.08896 132.84896 137.75072 140.51071 144.72798 147.84127 151.44029 156.34206 161.1555 169.78879 172.79167 175.90496 181.42496 186.22736 191.74736 194.50736 199.40912 204.92913 210.34976 214.0592 219.57921 224.48097 229.29442 234.81443 237.57442 240.6877 246.2077 248.9677 252.56673 257.46849 262.39234 267.19474 270.308 275.70658 278.81986 284.33985 289.85984 292.61985 298.13984 303.5384 309.05839 311.8184 315.52784 320.33024 325.85023 331.3702 334.96928 338.08256 342.3771 345.13713 349.9616 355.4816 361.0016 363.7616 368.05616 373.57615 376.6011 379.7144 382.71726 386.4267 391.82527 394.93855 397.69856 401.2976 406.19938 411.71937 415.4509 420.9709 426.36946 431.88945 436.7912 439.8051 442.9184 448.4384 453.95838 456.59696 459.71025 464.51264 469.31504 474.83503 480.355 483.4683 488.98829 494.50828 499.31068 503.60523 506.36524 509.12525 512.7464">With a streamlined approach to receiving bug reports and skillful reproduction techniques, I </tspan></text>
</g>
<g clip-path="url(#clip_118)">
</g>
<g clip-path="url(#clip_119)">
<text xml:space="preserve" transform="matrix(1 0 -0 1 0 792)" font-size="11.04" font-family="TimesNewRomanPSMT"><tspan y="-372.05" x="108.02 112.31456 120.28544 123.35456 126.975688 130.08896 133.20224 138.72225 141.3608 146.8808 149.99408 155.51409 160.91265 166.43265 169.54593 174.94449 178.05777 182.95954 188.47954 191.14017 194.25345 199.77346 204.67522 207.33585 212.85585 216.45488 219.56816 225.08817 228.09105 233.61106 237.90561 240.6656 246.18561 249.91713 252.55568 255.66896 259.96354 264.19184 269.71183 274.6136 278.94126 281.70127 284.33985 287.45314 292.25553 297.1573 302.67729 305.8016 311.20018 316.72016 319.48017 322.59346 328.11344 330.752 333.8653 339.38529 344.18769 347.19056 350.9 353.66 359.18 362.88945 368.288 376.92127 382.31983 385.4331 388.1931 391.79219 396.69395 401.0216 406.42018 409.53346 415.05345 418.0563 421.1696 426.68959 432.20957 434.96958 437.72959 444.47505 449.8515 452.96479 457.25935 459.91999 468.44285 473.3446 476.46894 479.4718 484.37358 489.89356 492.90748 498.42747 503.94746 508.242">swiftly pinpointed the origins of issues, leading to their prompt resolution. This meticulous </tspan></text>
</g>
<g clip-path="url(#clip_120)">
</g>
<g clip-path="url(#clip_121)">
<text xml:space="preserve" transform="matrix(1 0 -0 1 0 792)" font-size="11.04" font-family="TimesNewRomanPSMT"><tspan y="-359.33" x="108.02 113.53999 117.249439 122.76943 127.671199">proce</tspan></text>
</g>
<g clip-path="url(#clip_122)">
<text xml:space="preserve" transform="matrix(1 0 -0 1 0 792)" font-size="11.04" font-family="TimesNewRomanPSMT"><tspan y="-359.33" x="132.5 136.79456 141.13327 143.77182 147.48126 152.38303 156.71071 162.10927 165.22255 168.22544 173.1272 178.6472 181.30783 184.42111 189.94112 192.70111 197.60288 203.12288 205.78351 210.68527 216.20528 221.72528 226.53873 232.05873 236.9605 241.88434 247.40435 250.16434 254.35953 259.87953 263.47859 266.59187 274.50755 279.4093 283.14085 288.0426 290.70326 295.605 301.125 306.645 311.45845 315.16789 318.17076 323.0725 328.5925 333.40596 338.3077 341.06773 343.82774 347.44886 351.1583 356.06007 360.98393 363.6225 367.33195 371.04139 376.43995 385.0732 387.7118 390.82508 396.34507 401.24684 403.90748 407.02076 412.54075 417.4425 422.86314 425.9764 428.97929 432.68873 435.6916 440.59336 446.11335 448.87336 454.39335 459.91334 465.33396 469.52915 472.28916 475.04917 479.95094 485.47093 490.9909 493.75093 496.76484 505.3981 510.79667 514.5061 520.0261 525.54617 530.3485 535.8685">ss resulted in an enhanced software experience, free from the identified bugs, and improved </tspan></text>
</g>
<g clip-path="url(#clip_123)">
</g>
<g clip-path="url(#clip_124)">
<text xml:space="preserve" transform="matrix(1 0 -0 1 0 792)" font-size="11.04" font-family="TimesNewRomanPSMT"><tspan y="-346.73" x="108.02 113.53999 119.05999 123.961757 127.693279 132.49567 135.60895 138.61183 141.37183 146.89183 150.60128 155.99983 161.51984 167.03984 171.84224 174.95552 177.71552 183.23552 188.75553 193.55792 196.6712 199.67409 202.78737 208.30738 210.94593 214.65537 220.17537 223.88481 226.52336 231.42513 236.94513 242.46514 245.22513 250.74514 254.9624 259.86418 263.5957 267.89027">overall product quality for end users.</tspan></text>
</g>
<g clip-path="url(#clip_125)">
<text xml:space="preserve" transform="matrix(1 0 -0 1 0 792)" font-size="11.04" font-family="TimesNewRomanPSMT"><tspan y="-346.73" x="270.65"> </tspan></text>
</g>
<g clip-path="url(#clip_126)">
</g>
<g clip-path="url(#clip_127)">
<text xml:space="preserve" transform="matrix(1 0 -0 1 0 792)" font-size="11.04" font-family="TimesNewRomanPSMT"><tspan y="-334.13" x="72.024"> </tspan></text>
</g>
<g clip-path="url(#clip_128)">
</g>
<g clip-path="url(#clip_129)">
<text xml:space="preserve" transform="matrix(1 0 -0 1 0 792)" font-size="11.04" font-family="TimesNewRomanPS" font-weight="bold"><tspan y="-321.41" x="72.024 79.34352 85.48176 90.38352 93.143527 97.43809 106.689609 112.088169 117.60816 120.72144 126.85968 131.76145 134.4 138.69455 144.8328 149.03903 152.74848 155.75136 159.4608 165.59905 169.27536">The Imagine Institute</tspan></text>
</g>
<g clip-path="url(#clip_130)">
<text xml:space="preserve" transform="matrix(1 0 -0 1 0 792)" font-size="11.04" font-family="TimesNewRomanPS" font-style="italic"><tspan y="-321.41" x="174.14"> </tspan></text>
</g>
<g clip-path="url(#clip_131)">
<text xml:space="preserve" transform="matrix(1 0 -0 1 0 792)" font-size="11.04" font-family="TimesNewRomanPS" font-style="italic"><tspan y="-321.41" x="176.9 179.90287 182.66286 188.18286 192.98526 198.50527 201.61855 204.62143 207.73471 212.63648 215.39647 218.0571 227.28655">| Seattle, WA</tspan></text>
</g>
<g clip-path="url(#clip_132)">
<text xml:space="preserve" transform="matrix(1 0 -0 1 0 792)" font-size="11.04" font-family="TimesNewRomanPSMT"><tspan y="-321.41" x="233.93"> </tspan></text>
</g>
<g clip-path="url(#clip_133)">
<text xml:space="preserve" transform="matrix(1 0 -0 1 0 792)" font-size="11.04" font-family="TimesNewRomanPSMT"><tspan y="-321.41" x="252.05"> </tspan></text>
</g>
<g clip-path="url(#clip_134)">
<text xml:space="preserve" transform="matrix(1 0 -0 1 0 792)" font-size="11.04" font-family="TimesNewRomanPSMT"><tspan y="-321.41" x="288.05"> </tspan></text>
</g>
<g clip-path="url(#clip_135)">
<text xml:space="preserve" transform="matrix(1 0 -0 1 0 792)" font-size="11.04" font-family="TimesNewRomanPSMT"><tspan y="-321.41" x="324.07"> </tspan></text>
</g>
<g clip-path="url(#clip_136)">
<text xml:space="preserve" transform="matrix(1 0 -0 1 0 792)" font-size="11.04" font-family="TimesNewRomanPSMT"><tspan y="-321.41" x="360.07"> </tspan></text>
</g>
<g clip-path="url(#clip_137)">
<text xml:space="preserve" transform="matrix(1 0 -0 1 0 792)" font-size="11.04" font-family="TimesNewRomanPSMT"><tspan y="-321.41" x="396.07 400.36457 405.29945 410.81944 416.33943 421.1418 424.85127 430.37126 433.13127 438.65126 444.17124 449.5698 455.08979">January 2021 </tspan></text>
</g>
<g clip-path="url(#clip_138)">
<text xml:space="preserve" transform="matrix(1 0 -0 1 0 792)" font-size="11.04" font-family="TimesNewRomanPSMT"><tspan y="-321.41" x="457.9">&#x2013;</tspan></text>
</g>
<g clip-path="url(#clip_139)">
<text xml:space="preserve" transform="matrix(1 0 -0 1 0 792)" font-size="11.04" font-family="TimesNewRomanPSMT"><tspan y="-321.41" x="463.42"> </tspan></text>
</g>
<g clip-path="url(#clip_140)">
<text xml:space="preserve" transform="matrix(1 0 -0 1 0 792)" font-size="11.04" font-family="TimesNewRomanPSMT"><tspan y="-321.41" x="466.18 472.31825 475.8952 480.79698 485.12464 489.92704 495.44703">Present</tspan></text>
</g>
<g clip-path="url(#clip_141)">
<text xml:space="preserve" transform="matrix(1 0 -0 1 0 792)" font-size="11.04" font-family="TimesNewRomanPSMT"><tspan y="-321.41" x="498.46"> </tspan></text>
</g>
<g clip-path="url(#clip_142)">
<text xml:space="preserve" transform="matrix(1 0 -0 1 0 792)" font-size="11.04" font-family="TimesNewRomanPS" font-style="italic"><tspan y="-308.81" x="72.024 78.76944 83.064 87.35857 90.38353 94.67809 97.81345 103.33345 108.73201 111.84529 114.48386 117.59714 120.35714 125.87714 131.39714 136.91715 141.11234 144.22562 147.2285 150.34178 155.74034 158.85363">Assistant / Substitute</tspan></text>
</g>
<g clip-path="url(#clip_143)">
<text xml:space="preserve" transform="matrix(1 0 -0 1 0 792)" font-size="11.04" font-family="TimesNewRomanPSMT"><tspan y="-308.81" x="163.7"> </tspan></text>
</g>
<g clip-path="url(#clip_144)">
<text xml:space="preserve" transform="matrix(1 0 -0 1 0 792)" font-size="11.04" font-family="TimesNewRomanPSMT"><tspan y="-296.09" x="72.024">&#x2022;</tspan></text>
</g>
<g clip-path="url(#clip_145)">
<text xml:space="preserve" transform="matrix(1 0 -0 1 0 792)" font-size="11.04" font-family="ArialMT"><tspan y="-296.09" x="75.864"> </tspan></text>
</g>
<g clip-path="url(#clip_146)">
<text xml:space="preserve" transform="matrix(1 0 -0 1 0 792)" font-size="11.04" font-family="TimesNewRomanPSMT"><tspan y="-296.09" x="90.024 99.83856 104.773448 108.48289 113.88145 118.78321 121.797138 126.6989 132.2189 138.46755 143.36931 148.78995 151.90323 155.01651 160.41507 165.31684 170.13028 173.83972 178.74149 184.99013 189.89189 195.31253 203.94582 209.34438 214.24614 219.76615 225.28615 231.53479 237.0548 242.5748 248.80135 253.60375 257.31318 262.21495 267.02839 270.14167 273.14454 278.66453">Marketed childcare company by creating</tspan></text>
</g>
<g clip-path="url(#clip_147)">
<text xml:space="preserve" transform="matrix(1 0 -0 1 0 792)" font-size="11.04" font-family="TimesNewRomanPSMT"><tspan y="-296.09" x="284.33"> </tspan></text>
</g>
<g clip-path="url(#clip_148)">
<text xml:space="preserve" transform="matrix(1 0 -0 1 0 792)" font-size="11.04" font-family="TimesNewRomanPSMT"><tspan y="-296.09" x="290.57 299.09288 304.61286 307.61573 310.729 313.8423 319.24085 322.35414 327.15653 333.3831 337.67765 343.19764 348.1325 351.13539 356.03715 359.16148 365.2666 373.89988 378.80165 384.22227 387.33555 392.2373 398.48597 403.88453 406.9978 411.8002 414.91349 418.62294 424.02149 427.62055 436.2538 440.54838 446.80809 449.81095 455.33094 460.2327 463.35704 468.877 474.27558 477.38887 482.90885 488.42884 494.6554 500.65013 505.55189 510.47575 515.3775 520.8975 526.3182 531.8382 537.23678 539.8753">multiple social media platforms including Facebook, </tspan></text>
</g>
<g clip-path="url(#clip_149)">
<text xml:space="preserve" transform="matrix(1 0 -0 1 0 792)" font-size="11.04" font-family="TimesNewRomanPSMT"><tspan y="-283.49" x="90.024 93.62305 99.14304 103.43761 106.57297 111.47473 116.99473 120.61585 125.51762 134.05153 136.81153 139.57152 144.47328 149.99329 155.51329 158.27329 164.41153 169.81009 174.71186 180.23186 185.1557 190.55426 195.45603 198.58036 201.2189 204.33219 209.13459 214.03635 219.55635 222.68068 228.20069 233.72069 236.35924 239.47252 244.99253 247.75252 253.27252 255.91109 260.81285 266.33283 271.75346 274.86674 277.98 282.7824 287.68418 293.20417 296.21809 298.9781 302.09138 307.48994 312.3917 316.12324 320.92564 325.8274 330.04469 334.94645 337.70646 340.83079 346.35078 348.98936 352.6988 355.70167 359.4111 363.70567 366.73063 369.49064 378.1239 383.52247 389.04246 392.15574">Instagram, and Snapchat leading to 5 applicant increase in first month</tspan></text>
</g>
<g clip-path="url(#clip_150)">
<text xml:space="preserve" transform="matrix(1 0 -0 1 0 792)" font-size="11.04" font-family="TimesNewRomanPSMT"><tspan y="-283.49" x="397.75"> </tspan></text>
</g>
<g clip-path="url(#clip_151)">
<text xml:space="preserve" transform="matrix(1 0 -0 1 0 792)" font-size="11.04" font-family="TimesNewRomanPSMT"><tspan y="-270.89" x="90.024"> </tspan></text>
</g>
<g clip-path="url(#clip_152)">
<text xml:space="preserve" transform="matrix(1 0 -0 1 0 792)" font-size="11.04" font-family="TimesNewRomanPSMT"><tspan y="-258.17" x="72.024">&#x2022;</tspan></text>
</g>
<g clip-path="url(#clip_153)">
<text xml:space="preserve" transform="matrix(1 0 -0 1 0 792)" font-size="11.04" font-family="ArialMT"><tspan y="-258.17" x="75.864"> </tspan></text>
</g>
<g clip-path="url(#clip_154)">
<text xml:space="preserve" transform="matrix(1 0 -0 1 0 792)" font-size="11.04" font-family="TimesNewRomanPSMT"><tspan y="-258.17" x="90.024 97.34352 102.245288 107.76528 110.8896 115.79137 123.762248 126.52225 131.15904 136.0608 141.48145 146.38321 149.50754 154.9061 159.80786 164.7317 167.4917 172.16162 177.06339 182.58339 188.1034 192.67395 197.57572 203.09572 206.22005 211.6186 215.91316 219.04853 223.71845 229.23845 234.75846 238.95365 242.06693 247.58693 252.38933 256.6839 261.0226 264.62168 268.91624 273.60826 279.12825 284.64823 290.1682 295.56678 300.46855 303.59288 308.2628 313.16456 317.978 322.87977 328.39976 332.9703 341.60359 347.12358 352.52214 355.6354 361.1554 365.82533 368.9386 374.4586 379.1285 384.52708 388.2365 393.7565 398.5589 402.26835 406.93827 410.05155 415.57154 420.24147 423.8405 428.74229 434.26228 439.78227 444.5957 449.49748 454.18949 459.70948 465.22947 470.74946 475.6512 480.57508 485.37748 489.67204 494.01075 498.81315 502.52259 508.04258 512.7125 516.422 521.82058 527.3406 532.8606 537.0558 539.69436">Review, analyze, and adjust business&#x2019;s budget each month in order to reduce unnecessary funds, </tspan></text>
</g>
<g clip-path="url(#clip_155)">
<text xml:space="preserve" transform="matrix(1 0 -0 1 0 792)" font-size="11.04" font-family="TimesNewRomanPSMT"><tspan y="-245.57" x="90.024 93.733448 98.63521 102.96289 108.36145 111.47473 114.477619 117.5909 123.11089 128.63089 131.26944 134.38272 139.90273 142.66272 148.18273 153.58129 159.10129 164.62129 167.38129 170.49457 175.89313 180.79489 184.416 189.31777 194.24161 198.4368 203.33856 206.09856 209.11248 214.63248 217.39247 226.02576 231.54576 236.94432 240.0576 245.5776">resulting in $500 increase in monthl</tspan></text>
</g>
<g clip-path="url(#clip_156)">
<text xml:space="preserve" transform="matrix(1 0 -0 1 0 792)" font-size="11.04" font-family="TimesNewRomanPSMT"><tspan y="-245.57" x="248.69 254.21 256.97 261.26457 266.08906 271.60905 274.72233 280.2423 285.64088">y savings</tspan></text>
</g>
<g clip-path="url(#clip_157)">
<text xml:space="preserve" transform="matrix(1 0 -0 1 0 792)" font-size="11.04" font-family="TimesNewRomanPSMT"><tspan y="-245.57" x="289.85"> </tspan></text>
</g>
<g clip-path="url(#clip_158)">
<text xml:space="preserve" transform="matrix(1 0 -0 1 0 792)" font-size="11.04" font-family="TimesNewRomanPSMT"><tspan y="-232.85" x="90.024"> </tspan></text>
</g>
<g clip-path="url(#clip_159)">
<text xml:space="preserve" transform="matrix(1 0 -0 1 0 792)" font-size="11.04" font-family="TimesNewRomanPSMT"><tspan y="-220.25" x="72.024">&#x2022;</tspan></text>
</g>
<g clip-path="url(#clip_160)">
<text xml:space="preserve" transform="matrix(1 0 -0 1 0 792)" font-size="11.04" font-family="ArialMT"><tspan y="-220.25" x="75.864"> </tspan></text>
</g>
<g clip-path="url(#clip_161)">
<text xml:space="preserve" transform="matrix(1 0 -0 1 0 792)" font-size="11.04" font-family="TimesNewRomanPSMT"><tspan y="-220.25" x="90.024 96.16224 101.682239 104.75136 107.89776 113.417758 121.22303 126.124797 131.64479 137.5291 141.72429 144.83757 148.54701 153.94557 158.84734 161.97167 167.37023 171.07967 175.98143 181.40207 187.27535 192.79535 196.39438 201.91439 205.02767 210.42623 215.32799 220.84799 223.97232 229.8456 237.76128 243.15984 248.0616 253.5816 259.46595 264.26835 269.78834 274.0829 279.5035 283.21296 286.32624 291.84623 297.24479 303.11808 307.41264 312.23713 315.94657 320.74897 323.86225 329.2608 335.1341 340.65409 344.36354 350.23683 355.63539 361.86195 367.74629 373.14485 376.25813 381.7781 385.9733 391.8466 397.36659 402.26835 405.88948 411.76277 417.28276 422.1845 427.60514 433.47843 436.5917 441.99028 447.74214 453.26213 456.97157 462.49156 467.29396 471.0034 476.87669 479.87956 485.39955 491.27284 494.8719 500.39189 504.68644 507.7114 512.61318 516.34469 522.0965 526.39108 531.2155 534.925 539.72738">Followed structured protocol when ensuring safety of 5+ kids per day in order to foster safe </tspan></text>
</g>
<g clip-path="url(#clip_162)">
<text xml:space="preserve" transform="matrix(1 0 -0 1 0 792)" font-size="11.04" font-family="TimesNewRomanPSMT"><tspan y="-207.62" x="90.024 94.925769 100.44576 105.96576 108.97968 112.689128 118.20912 123.60768 132.24097 137.14273 142.56337">environment</tspan></text>
</g>
<g clip-path="url(#clip_163)">
<text xml:space="preserve" transform="matrix(1 0 -0 1 0 792)" font-size="11.04" font-family="TimesNewRomanPSMT"><tspan y="-207.62" x="145.58"> </tspan></text>
</g>
<g clip-path="url(#clip_164)">
<text xml:space="preserve" transform="matrix(1 0 -0 1 0 792)" font-size="11.04" font-family="TimesNewRomanPSMT"><tspan y="-194.9" x="72.024"> </tspan></text>
</g>
<g clip-path="url(#clip_165)">
<text xml:space="preserve" transform="matrix(1 0 -0 1 0 792)" font-size="11.04" font-family="TimesNewRomanPS" font-weight="bold"><tspan y="-182.3" x="72.024 79.34352 87.2592 95.17488 103.09056 111.00624 118.32576 122.62032 131.27568">EDUCATION</tspan></text>
</g>
<g clip-path="url(#clip_166)">
<text xml:space="preserve" transform="matrix(1 0 -0 1 0 792)" font-size="11.04" font-family="TimesNewRomanPS" font-weight="bold"><tspan y="-182.3" x="139.22"> </tspan></text>
</g>
<g clip-path="url(#clip_167)">
<text xml:space="preserve" transform="matrix(1 0 -0 1 0 792)" font-size="11.04" font-family="TimesNewRomanPS" font-weight="bold"><tspan y="-169.58" x="72.024 79.93968 84.841449 90.36144 95.285289 98.04529 105.96097 112.099208 114.85921 117.92833 120.68833 126.82657 131.64002 137.16002 140.75905 144.46849 147.58177 152.38417 155.14417 163.05985 167.96161 174.09986 177.8093 182.6117 188.1317 191.24498 193.88353 201.79921 207.31922 210.4325 213.54578 218.44754 223.86818 228.76995 231.52994">Year Up / Seattle Central College, </tspan></text>
</g>
<g clip-path="url(#clip_168)">
<text xml:space="preserve" transform="matrix(1 0 -0 1 0 792)" font-size="11.04" font-family="TimesNewRomanPSMT"><tspan y="-169.58" x="234.41 240.54825 245.32857 250.23033 253.24425 256.3575 259.36039 264.26216 267.02217 269.78218 280.226">Seattle, WA</tspan></text>
</g>
<g clip-path="url(#clip_169)">
<text xml:space="preserve" transform="matrix(1 0 -0 1 0 792)" font-size="11.04" font-family="TimesNewRomanPSMT"><tspan y="-169.58" x="288.05"> </tspan></text>
</g>
<g clip-path="url(#clip_170)">
<text xml:space="preserve" transform="matrix(1 0 -0 1 0 792)" font-size="11.04" font-family="TimesNewRomanPSMT"><tspan y="-169.58" x="421.51 427.64826 432.55003 438.07 441.1833 445.9857 454.61897 460.13896 464.94136 468.6508 471.4108 476.9308 482.32936 487.84934 493.36933">September 2022 </tspan></text>
</g>
<g clip-path="url(#clip_171)">
<text xml:space="preserve" transform="matrix(1 0 -0 1 0 792)" font-size="11.04" font-family="TimesNewRomanPSMT"><tspan y="-169.58" x="496.18">&#x2013;</tspan></text>
</g>
<g clip-path="url(#clip_172)">
<text xml:space="preserve" transform="matrix(1 0 -0 1 0 792)" font-size="11.04" font-family="TimesNewRomanPSMT"><tspan y="-169.58" x="501.7"> </tspan></text>
</g>
<g clip-path="url(#clip_173)">
<text xml:space="preserve" transform="matrix(1 0 -0 1 0 792)" font-size="11.04" font-family="TimesNewRomanPSMT"><tspan y="-169.58" x="504.46 510.59825 515.37857 520.89859 524.01187 528.8142 537.4475 542.84609 547.7478 551.4793 554.2393 559.75936 565.27938 570.6779">September 2023</tspan></text>
</g>
<g clip-path="url(#clip_174)">
<text xml:space="preserve" transform="matrix(1 0 -0 1 0 792)" font-size="11.04" font-family="TimesNewRomanPSMT"><tspan y="-169.58" x="576.1"> </tspan></text>
</g>
<g clip-path="url(#clip_175)">
</g>
<g clip-path="url(#clip_176)">
<text xml:space="preserve" transform="matrix(1 0 -0 1 0 792)" font-size="11.04" font-family="TimesNewRomanPS" font-style="italic"><tspan y="-156.98" x="72.024 78.16224 83.064 88.584 92.87856 95.638568 103.60944 109.12944 111.88944 114.85921 119.15377 121.91377 127.43377 132.95377 135.6144 138.72768 144.12624 147.23952 152.14128 157.66129 161.87856 164.99184 169.8936 174.70705 177.46704 180.22704 185.1288 190.54944 198.46512 203.98513 208.88689 212.01122 215.0141 218.12738 221.13027 226.03203 230.95587 233.59442 236.7077 241.60947 246.53331 251.93187 257.45188 260.56517 265.36756 270.88755 274.00083 276.6394 279.7527 284.04725 289.46788 292.58116 298.10115 301.104 306.624 312.02256 314.78257 320.30256 325.82255 331.34254 334.10255 339.0043 344.5243 348.74159 353.64335 358.5672 362.86177 365.5224 371.0424 375.94416 380.7576 385.65937 388.7837 394.30369 399.82368 407.62898 412.53074 418.05073 421.17506 423.93507 429.33363 433.5288 439.0488 444.5688 448.86335 454.38334 462.35423 465.11424 467.87425 473.96833 479.4883 484.39009 487.05073 492.5707 496.86528 502.38526 507.90525 512.1336 517.6536 525.56936">Year Up is an intensive, competitive technical training and career development program. The program </tspan></text>
</g>
<g clip-path="url(#clip_177)">
</g>
<g clip-path="url(#clip_178)">
<text xml:space="preserve" transform="matrix(1 0 -0 1 0 792)" font-size="11.04" font-family="TimesNewRomanPS" font-style="italic"><tspan y="-144.26" x="72.024 75.13728 80.65728 85.45969 88.57297 94.092967 99.61296 104.514728 108.73201 111.49201 116.393779 121.814418 124.9277 128.04099 132.84339 138.36339">includes college</tspan></text>
</g>
<g clip-path="url(#clip_179)">
<text xml:space="preserve" transform="matrix(1 0 -0 1 0 792)" font-size="11.04" font-family="TimesNewRomanPS" font-style="italic"><tspan y="-144.26" x="143.3">-</tspan></text>
</g>
<g clip-path="url(#clip_180)">
<text xml:space="preserve" transform="matrix(1 0 -0 1 0 792)" font-size="11.04" font-family="TimesNewRomanPS" font-style="italic"><tspan y="-144.26" x="146.9 150.01328 154.81568 159.71744 164.64128 167.75457 170.39311 175.29488 180.81488 186.33489 190.55216 194.74735 199.64911 203.97679 206.73679 209.49678 215.01679 219.31134 224.73198 227.84526 232.64766 236.94222 241.28093 244.28382 249.80382 255.32382 260.8438 263.84669 266.6067 269.71998 273.91517 279.43516 282.54844 287.947 291.06028 296.58027 302.10026 304.86027 310.25883 315.65739 321.17738 323.93739 329.45738 332.21739 336.51194 339.5369">level courses, professional training and a six</tspan></text>
</g>
<g clip-path="url(#clip_181)">
<text xml:space="preserve" transform="matrix(1 0 -0 1 0 792)" font-size="11.04" font-family="TimesNewRomanPS" font-style="italic"><tspan y="-144.26" x="344.59">-</tspan></text>
</g>
<g clip-path="url(#clip_182)">
<text xml:space="preserve" transform="matrix(1 0 -0 1 0 792)" font-size="11.04" font-family="TimesNewRomanPS" font-style="italic"><tspan y="-144.26" x="348.31 356.22569 361.74568 367.14424 370.2575 375.7775 378.41609 381.52937 387.04936 390.05223 394.95399 399.28166 404.80165 408.99684 414.5168 417.6301 423.1501">month internship.</tspan></text>
</g>
<g clip-path="url(#clip_183)">
<text xml:space="preserve" transform="matrix(1 0 -0 1 0 792)" font-size="11.04" font-family="TimesNewRomanPS" font-style="italic"><tspan y="-144.26" x="425.83"> </tspan></text>
</g>
<g clip-path="url(#clip_184)">
</g>
<g clip-path="url(#clip_185)">
<text xml:space="preserve" transform="matrix(1 0 -0 1 0 792)" font-size="11.04" font-family="TimesNewRomanPSMT"><tspan y="-131.66" x="72.024">&#x2022;</tspan></text>
</g>
<g clip-path="url(#clip_186)">
<text xml:space="preserve" transform="matrix(1 0 -0 1 0 792)" font-size="11.04" font-family="ArialMT"><tspan y="-131.66" x="75.864"> </tspan></text>
</g>
<g clip-path="url(#clip_187)">
<text xml:space="preserve" transform="matrix(1 0 -0 1 0 792)" font-size="11.04" font-family="TimesNewRomanPSMT"><tspan y="-131.66" x="90.024 97.34352 102.86352 111.496799 117.01679 120.01968 124.92144 127.93536 132.83713 138.35713 141.11713 146.04097 151.56098 156.95954 160.66898 164.86417 169.76593 177.73682 183.25682 186.93314 192.45314 195.10274 198.21602 203.73603 206.49602 212.49074 218.01074 221.72019 224.83347 232.74915 237.55155 241.26099 246.16275 248.92275 256.89363 261.79539 267.1829 272.08467 275.20899 280.60755 286.12754 294.6504 299.55216 305.07215 308.19648 310.83506 315.73683 321.2568 326.7768 329.43745 336.1829 341.08467 345.3792 348.39314 351.5064 357.0264 362.5464 365.3064 368.0664 374.06114 377.77058 383.29057 386.29344 391.1952 396.00865 399.12193 401.88194 411.6965 416.521 422.041 426.94276 432.46275 437.27619 445.90946">Completed coursework in Software Development and Testing, Project Manageme</tspan></text>
</g>
<g clip-path="url(#clip_188)">
<text xml:space="preserve" transform="matrix(1 0 -0 1 0 792)" font-size="11.04" font-family="TimesNewRomanPSMT"><tspan y="-131.66" x="450.94 456.46 459.57328 462.33329 465.0933 469.99507 475.51506 480.93568 483.69569 491.0152 496.5352 500.82975 503.8547 509.3747 514.2764 518.4937 522.78829">nt, and Business </tspan></text>
</g>
<g clip-path="url(#clip_189)">
<text xml:space="preserve" transform="matrix(1 0 -0 1 0 792)" font-size="11.04" font-family="TimesNewRomanPSMT"><tspan y="-119.06" x="90.024 97.34352 102.86352 111.496799 120.01968 125.53967 131.05968 134.06256 138.96433 143.88817 146.89105 150.00434 155.52434 160.9229 165.21746 167.97745 170.73744 178.70833 181.67809 184.79137 190.31137 193.07137 197.36592 202.78656 207.68833 212.50177 215.61505 220.51682 223.53073 226.64402 231.44641 236.34818 241.86818 244.62818 247.64209 251.35153 256.15394 259.2672 264.7872 267.90049 273.29905 278.81904 281.57905 284.69233 290.2123 292.97233 300.888 306.28657 311.18833 314.20225 317.31553 320.3184 325.83839 328.47697 336.39265 340.6872 345.0259 350.5459 354.25535 359.05775 364.57774 369.4795 374.40336 377.16337 379.80195 382.91523 388.4352 393.2376 396.3509 401.87089 407.26945 410.38273 415.9027 421.4227 424.06129 432.69456 437.5963 443.1163 448.53694 453.4387 456.56303 459.32304 463.61759 469.0382 472.74766 475.86094 483.66624 488.568 492.29954 497.2013 499.86195 502.97523 507.77763 512.0722 515.0971 518.2104 523.7304 529.2504">Communications, with specialized training in Quality Assurance, including manual software testing </tspan></text>
</g>
<g clip-path="url(#clip_190)">
<text xml:space="preserve" transform="matrix(1 0 -0 1 0 792)" font-size="11.04" font-family="TimesNewRomanPSMT"><tspan y="-119.06" x="532.18"> </tspan></text>
</g>
<g clip-path="url(#clip_191)">
<text xml:space="preserve" transform="matrix(1 0 -0 1 0 792)" font-size="11.04" font-family="TimesNewRomanPSMT"><tspan y="-106.34" x="90.024"> </tspan></text>
</g>
<g clip-path="url(#clip_192)">
<text xml:space="preserve" transform="matrix(1 0 -0 1 0 792)" font-size="11.04" font-family="TimesNewRomanPS" font-weight="bold"><tspan y="-93.744" x="72.024 79.34352 87.2592 95.17488 103.80816 111.72384 119.63952 128.2728 135.59232">LANGUAGES</tspan></text>
</g>
<g clip-path="url(#clip_193)">
<text xml:space="preserve" transform="matrix(1 0 -0 1 0 792)" font-size="11.04" font-family="TimesNewRomanPS" font-weight="bold"><tspan y="-93.744" x="141.74"> </tspan></text>
</g>
<g clip-path="url(#clip_194)">
<text xml:space="preserve" transform="matrix(1 0 -0 1 0 792)" font-size="11.04" font-family="TimesNewRomanPSMT"><tspan y="-81.024" x="72.024">&#x2022;</tspan></text>
</g>
<g clip-path="url(#clip_195)">
<text xml:space="preserve" transform="matrix(1 0 -0 1 0 792)" font-size="11.04" font-family="ArialMT"><tspan y="-81.024" x="75.864"> </tspan></text>
</g>
<g clip-path="url(#clip_196)">
<text xml:space="preserve" transform="matrix(1 0 -0 1 0 792)" font-size="11.04" font-family="TimesNewRomanPSMT"><tspan y="-81.024" x="90.024 96.16224 101.682239 110.271358 115.10688 118.22016 121.33344">Somali </tspan></text>
</g>
<g clip-path="url(#clip_197)">
<text xml:space="preserve" transform="matrix(1 0 -0 1 0 792)" font-size="11.04" font-family="TimesNewRomanPSMT"><tspan y="-81.024" x="124.1">-</tspan></text>
</g>
<g clip-path="url(#clip_198)">
<text xml:space="preserve" transform="matrix(1 0 -0 1 0 792)" font-size="11.04" font-family="TimesNewRomanPSMT"><tspan y="-81.024" x="127.7"> </tspan></text>
</g>
<g clip-path="url(#clip_199)">
<text xml:space="preserve" transform="matrix(1 0 -0 1 0 792)" font-size="11.04" font-family="TimesNewRomanPSMT"><tspan y="-81.024" x="130.46 133.46289 136.46578 145.09906 148.10195 151.21523 156.11699 161.637 164.39699 172.36788 177.73332 181.44277 186.96277 189.96566 195.48566 201.00566 203.76566 209.76038 213.46982 218.98983 222.58885 225.70214 230.6039 233.61782 238.51958 244.03958 248.96343">limited working Proficiency</tspan></text>
</g>
<g clip-path="url(#clip_200)">
<text xml:space="preserve" transform="matrix(1 0 -0 1 0 792)" font-size="11.04" font-family="TimesNewRomanPSMT"><tspan y="-81.024" x="254.45"> </tspan></text>
</g>
</g>
</svg>
