<?xml version="1.0" encoding="UTF-8" standalone="no"?>
<!DOCTYPE svg PUBLIC "-//W3C//DTD SVG 1.1//EN" "http://www.w3.org/Graphics/SVG/1.1/DTD/svg11.dtd">
<svg xmlns="http://www.w3.org/2000/svg" xmlns:xlink="http://www.w3.org/1999/xlink" version="1.1" width="612pt" height="792pt" viewBox="0 0 612 792">
<g enable-background="new">
<g id="Layer-1" data-name="P">
</g>
<g id="Layer-1" data-name="P">
</g>
<g id="Layer-1" data-name="Link">
</g>
<g id="Layer-1" data-name="Span">
</g>
<g id="Layer-1" data-name="Link">
</g>
<text xml:space="preserve" transform="matrix(1 0 -0 1 0 792)" font-size="18" font-family="TimesNewRomanPS" font-weight="bold"><tspan y="-739.2" x="256.26 267.24 275.2194 284.2194 291.2394 300.2394 305.22 309.72 323.7006 338.69459 347.69459">Feysal Omar</tspan></text>
<text xml:space="preserve" transform="matrix(1 0 -0 1 0 792)" font-size="10.98" font-family="TimesNewRomanPSMT"><tspan y="-739.2" x="355.68"> </tspan><tspan y="-725.0358" x="159.3027 162.96234 168.48528 174.00821 179.53115 183.19078 188.65113 194.17406 199.69699 203.35334 208.8104 214.33005 219.78711 225.30348 228.05947 231.83658 234.60355 240.7194 245.58354 251.16358 255.42382 260.28797 263.3382 268.85786 277.37834 282.23808 285.9021 291.42506 296.948 307.08253 312.60218 321.06227 325.9264 328.98655 332.0467 334.86634 339.73048 345.31053 353.75849 356.58036 360.35749 363.12443 371.04103 374.70066 379.6208 384.48493 387.54508 392.4092 396.12925 398.88523 405.0055 409.86964 414.73377 417.7939 420.85408 423.9142 428.77836 431.53434 434.2858 444.6663 452.64436">(206)886-1689 &#x2022; Feysalomar68@gmail.com &#x2022; Greater Seattle, WA </tspan><tspan y="-712.3759" x="265.44636 272.1661 275.22624 280.74919 286.27214 291.13188 296.65483 300.31446 305.8374 308.58677 310.74983 313.5058 321.4224 324.48255 327.5427 335.4593 340.98005">LinkedIn | GitHub</tspan></text>
<g id="Layer-1" data-name="Span">
<text xml:space="preserve" transform="matrix(1 0 -0 1 0 792)" font-size="10.98" font-family="TimesNewRomanPSMT"><tspan y="-712.38" x="346.5 349.20109">  </tspan></text>
<path transform="matrix(1,0,0,-1,0,792)" d="M 265.44 710.64 L 305.82 710.64 L 305.82 711.18 L 265.44 711.18 Z "/>
<path transform="matrix(1,0,0,-1,0,792)" d="M 313.5 710.64 L 346.5 710.64 L 346.5 711.18 L 313.5 711.18 Z "/>
</g>
<g id="Layer-1" data-name="P">
</g>
<text xml:space="preserve" transform="matrix(1 0 -0 1 0 792)" font-size="10.98" font-family="TimesNewRomanPS" font-weight="bold"><tspan y="-699.78" x="54"> </tspan></text>
<g id="Layer-1" data-name="P">
<text xml:space="preserve" transform="matrix(1 0 -0 1 0 792)" font-size="10.98" font-family="TimesNewRomanPS" font-weight="bold"><tspan y="-687.12" x="54 61.91658 69.236949 76.55731 83.93697 91.85355 99.770137 107.7504 115.13116 117.88713 124.007389 132.52787 136.7881 144.10738 151.42775 157.61826">RELEVANT SKILLS </tspan></text>
<path transform="matrix(1,0,0,-1,0,792)" d="M 52.5 682.2 L 559.5 682.2 L 559.5 683.7 L 52.5 683.7 Z " fill-rule="evenodd"/>
</g>
<g id="Layer-1" data-name="P">
<clipPath id="cp0">
<path transform="matrix(1,0,0,-1,0,792)" d="M 54 603.18 L 226.38 603.18 L 226.38 682.2 L 54 682.2 Z "/>
</clipPath>
<g clip-path="url(#cp0)">
<text xml:space="preserve" transform="matrix(1 0 -0 1 0 792)" font-size="10.98" font-family="TimesNewRomanPSMT"><tspan y="-671.94" x="59.4"> </tspan></text>
</g>
</g>
<g id="Layer-1" data-name="LBody">
</g>
<g id="Layer-1" data-name="LBody">
</g>
<g id="Layer-1" data-name="LBody">
</g>
<g id="Layer-1" data-name="LBody">
</g>
<text xml:space="preserve" transform="matrix(1 0 -0 1 0 792)" font-size="10.98" font-family="SymbolMT"><tspan y="-658.5" x="63.18">&#x2022;</tspan></text>
<text xml:space="preserve" transform="matrix(1 0 -0 1 0 792)" font-size="10.98" font-family="ArialMT"><tspan y="-658.5" x="68.21982"> </tspan></text>
<text xml:space="preserve" transform="matrix(1 0 -0 1 0 792)" font-size="10.98" font-family="TimesNewRomanPSMT"><tspan y="-658.5" x="81.176219 90.9561 94.01952 98.87927 102.53891 108.058559 112.3188 117.83845 121.499179 124.5626 127.31858 135.23847 138.89809 142.5588 145.62223 150.48197 155.3417 158.09769 164.21355 169.73429 172.7977 175.86112 180.72089">Microsoft Office Suite </tspan></text>
<text xml:space="preserve" transform="matrix(1 0 -0 1 0 792)" font-size="10.98" font-family="SymbolMT"><tspan y="-645.0605" x="63.179994">&#x2022;</tspan></text>
<text xml:space="preserve" transform="matrix(1 0 -0 1 0 792)" font-size="10.98" font-family="ArialMT"><tspan y="-645.0605" x="68.21981"> </tspan></text>
<text xml:space="preserve" transform="matrix(1 0 -0 1 0 792)" font-size="10.98" font-family="TimesNewRomanPSMT"><tspan y="-645.0605" x="81.17621 89.09279 92.753528 96.41316 99.47329 104.33743 109.20158 111.95755 117.478298 122.99794 128.51099">Office 365 </tspan></text>
<text xml:space="preserve" transform="matrix(1 0 -0 1 0 792)" font-size="10.98" font-family="SymbolMT"><tspan y="-631.621" x="63.169008">&#x2022;</tspan></text>
<text xml:space="preserve" transform="matrix(1 0 -0 1 0 792)" font-size="10.98" font-family="ArialMT"><tspan y="-631.621" x="68.208827"> </tspan></text>
<text xml:space="preserve" transform="matrix(1 0 -0 1 0 792)" font-size="10.98" font-family="TimesNewRomanPSMT"><tspan y="-631.621" x="81.16522 87.88499 93.40793 98.93087 107.44036">Zoom </tspan></text>
<text xml:space="preserve" transform="matrix(1 0 -0 1 0 792)" font-size="10.98" font-family="SymbolMT"><tspan y="-618.18148" x="63.158025">&#x2022;</tspan></text>
<text xml:space="preserve" transform="matrix(1 0 -0 1 0 792)" font-size="10.98" font-family="ArialMT"><tspan y="-618.18148" x="68.197849"> </tspan></text>
<text xml:space="preserve" transform="matrix(1 0 -0 1 0 792)" font-size="10.98" font-family="TimesNewRomanPSMT"><tspan y="-618.18148" x="81.15424 88.477909 93.99755 97.060977 100.1244 104.984149 110.50379 116.02344 119.684169 124.543918 127.60734 130.67076 136.1937 141.63208">Collaboration </tspan></text>
<g id="Layer-1" data-name="P">
<clipPath id="cp1">
<path transform="matrix(1,0,0,-1,0,792)" d="M 54 603.18 L 226.38 603.18 L 226.38 682.2 L 54 682.2 Z "/>
</clipPath>
<g clip-path="url(#cp1)">
<text xml:space="preserve" transform="matrix(1 0 -0 1 0 792)" font-size="10.98" font-family="TimesNewRomanPSMT"><tspan y="-605.58" x="81.18"> </tspan></text>
</g>
<g id="Layer-1" data-name="P">
</g>
<clipPath id="cp2">
<path transform="matrix(1,0,0,-1,0,792)" d="M 226.38 603.18 L 369 603.18 L 369 682.2 L 226.38 682.2 Z "/>
</clipPath>
<g clip-path="url(#cp2)">
<text xml:space="preserve" transform="matrix(1 0 -0 1 0 792)" font-size="10.98" font-family="TimesNewRomanPSMT"><tspan y="-671.94" x="231.78"> </tspan></text>
</g>
</g>
<g id="Layer-1" data-name="LBody">
</g>
<g id="Layer-1" data-name="LBody">
</g>
<g id="Layer-1" data-name="LBody">
</g>
<g id="Layer-1" data-name="LBody">
</g>
<text xml:space="preserve" transform="matrix(1 0 -0 1 0 792)" font-size="10.98" font-family="SymbolMT"><tspan y="-658.5" x="229.5">&#x2022;</tspan></text>
<text xml:space="preserve" transform="matrix(1 0 -0 1 0 792)" font-size="10.98" font-family="ArialMT"><tspan y="-658.5" x="234.53983"> </tspan></text>
<text xml:space="preserve" transform="matrix(1 0 -0 1 0 792)" font-size="10.98" font-family="TimesNewRomanPSMT"><tspan y="-658.5" x="247.5621 255.47869 260.99833 265.86247 268.9226 271.98277 275.0429 280.62297 283.37895 291.29554 295.5558 299.81605 305.2764 308.93714 313.80128 319.32093 324.18507 329.09959">Quality Assurance </tspan></text>
<text xml:space="preserve" transform="matrix(1 0 -0 1 0 792)" font-size="10.98" font-family="SymbolMT"><tspan y="-645.0605" x="229.5">&#x2022;</tspan></text>
<text xml:space="preserve" transform="matrix(1 0 -0 1 0 792)" font-size="10.98" font-family="ArialMT"><tspan y="-645.0605" x="234.53983"> </tspan></text>
<text xml:space="preserve" transform="matrix(1 0 -0 1 0 792)" font-size="10.98" font-family="TimesNewRomanPSMT"><tspan y="-645.0605" x="247.5621 253.68236 259.202 262.86274 265.92289 273.83949 278.7036 282.36326 287.2274 289.98338 296.70314 301.56727 305.8275 308.94807 312.0071 317.52787 322.9837">Software Testing </tspan></text>
<text xml:space="preserve" transform="matrix(1 0 -0 1 0 792)" font-size="10.98" font-family="SymbolMT"><tspan y="-631.621" x="229.49999">&#x2022;</tspan></text>
<text xml:space="preserve" transform="matrix(1 0 -0 1 0 792)" font-size="10.98" font-family="ArialMT"><tspan y="-631.621" x="234.53981"> </tspan></text>
<text xml:space="preserve" transform="matrix(1 0 -0 1 0 792)" font-size="10.98" font-family="TimesNewRomanPSMT"><tspan y="-631.621" x="247.56209 255.48197 262.20173 271.9816 278.70137 281.45735 284.52076 287.27674 294.59709 300.71296 306.8288">HTML / CSS </tspan></text>
<text xml:space="preserve" transform="matrix(1 0 -0 1 0 792)" font-size="10.98" font-family="SymbolMT"><tspan y="-618.18148" x="229.49999">&#x2022;</tspan></text>
<text xml:space="preserve" transform="matrix(1 0 -0 1 0 792)" font-size="10.98" font-family="ArialMT"><tspan y="-618.18148" x="234.53981"> </tspan></text>
<text xml:space="preserve" transform="matrix(1 0 -0 1 0 792)" font-size="10.98" font-family="TimesNewRomanPSMT"><tspan y="-618.18148" x="247.56209 254.28185 259.1416 264.00245 269.5254 275.04835 280.5713 283.6314 289.15437 294.61473 300.13768 302.83876 309.5585 315.08146 320.6044 325.46415 330.32389 333.384 336.44413 341.96708 347.40324">Technology Education </tspan></text>
<g id="Layer-1" data-name="P">
<clipPath id="cp3">
<path transform="matrix(1,0,0,-1,0,792)" d="M 226.38 603.18 L 369 603.18 L 369 682.2 L 226.38 682.2 Z "/>
</clipPath>
<g clip-path="url(#cp3)">
<text xml:space="preserve" transform="matrix(1 0 -0 1 0 792)" font-size="10.98" font-family="TimesNewRomanPSMT"><tspan y="-605.58" x="247.56"> </tspan></text>
</g>
<g id="Layer-1" data-name="P">
</g>
<clipPath id="cp4">
<path transform="matrix(1,0,0,-1,0,792)" d="M 369 603.18 L 541.38 603.18 L 541.38 682.2 L 369 682.2 Z "/>
</clipPath>
<g clip-path="url(#cp4)">
<text xml:space="preserve" transform="matrix(1 0 -0 1 0 792)" font-size="10.98" font-family="TimesNewRomanPSMT"><tspan y="-671.94" x="374.4"> </tspan></text>
</g>
</g>
<g id="Layer-1" data-name="LBody">
</g>
<g id="Layer-1" data-name="LBody">
</g>
<g id="Layer-1" data-name="LBody">
</g>
<g id="Layer-1" data-name="LBody">
</g>
<g id="Layer-1" data-name="P">
</g>
<text xml:space="preserve" transform="matrix(1 0 -0 1 0 792)" font-size="10.98" font-family="SymbolMT"><tspan y="-658.5" x="379.68">&#x2022;</tspan></text>
<text xml:space="preserve" transform="matrix(1 0 -0 1 0 792)" font-size="10.98" font-family="ArialMT"><tspan y="-658.5" x="384.71983"> </tspan></text>
<text xml:space="preserve" transform="matrix(1 0 -0 1 0 792)" font-size="10.98" font-family="TimesNewRomanPSMT"><tspan y="-658.5" x="397.6762 403.79206 407.4517 412.97135 416.03477 420.8945 425.75425 428.81767 431.57365 438.89289 444.41365 449.9333 453.59294 459.05329 462.1167 467.63636 472.4961 475.5595 478.62294 484.14259 489.60078">Project Coordination </tspan></text>
<text xml:space="preserve" transform="matrix(1 0 -0 1 0 792)" font-size="10.98" font-family="SymbolMT"><tspan y="-645.0605" x="379.68">&#x2022;</tspan></text>
<text xml:space="preserve" transform="matrix(1 0 -0 1 0 792)" font-size="10.98" font-family="ArialMT"><tspan y="-645.0605" x="384.71983"> </tspan></text>
<text xml:space="preserve" transform="matrix(1 0 -0 1 0 792)" font-size="10.98" font-family="TimesNewRomanPSMT"><tspan y="-645.0605" x="397.6762 404.99659 410.51625 414.7765 417.83665 423.3563 431.87678 436.7409 440.40165 443.15763 449.2779 454.14204 457.86207 463.3817 466.44187 471.306 476.17015">Customer Service </tspan></text>
<text xml:space="preserve" transform="matrix(1 0 -0 1 0 792)" font-size="10.98" font-family="SymbolMT"><tspan y="-631.621" x="379.68">&#x2022;</tspan></text>
<text xml:space="preserve" transform="matrix(1 0 -0 1 0 792)" font-size="10.98" font-family="ArialMT"><tspan y="-631.621" x="384.71983"> </tspan></text>
<text xml:space="preserve" transform="matrix(1 0 -0 1 0 792)" font-size="10.98" font-family="TimesNewRomanPSMT"><tspan y="-631.621" x="397.6762 404.99659 410.51625 414.7765 417.83665 423.3563 428.22044 432.48069 436.74095 439.49693 446.8173 452.39735 460.91783 469.4372 474.95796 480.4776 483.53776 488.4019 493.26603 496.32728 499.38633 504.90708 510.41883">Business Communication </tspan></text>
<text xml:space="preserve" transform="matrix(1 0 -0 1 0 792)" font-size="10.98" font-family="SymbolMT"><tspan y="-618.18148" x="379.68">&#x2022;</tspan></text>
<text xml:space="preserve" transform="matrix(1 0 -0 1 0 792)" font-size="10.98" font-family="ArialMT"><tspan y="-618.18148" x="384.71983"> </tspan></text>
<text xml:space="preserve" transform="matrix(1 0 -0 1 0 792)" font-size="10.98" font-family="TimesNewRomanPSMT"><tspan y="-618.18148" x="397.6762 404.39598 407.51649 415.97657 420.8363 423.59999 433.37986 438.244 443.76475 448.62889 454.14964 459.06867 467.58915 472.45329 477.97404 481.08027">Time Management </tspan></text>
<text xml:space="preserve" transform="matrix(1 0 -0 1 0 792)" font-size="10.98" font-family="TimesNewRomanPS" font-weight="bold"><tspan y="-592.9165" x="54.002199"> </tspan></text>
<g id="Layer-1" data-name="P">
<text xml:space="preserve" transform="matrix(1 0 -0 1 0 792)" font-size="10.98" font-family="TimesNewRomanPS" font-weight="bold"><tspan y="-580.26" x="54 61.320367 69.29953 76.020389 83.34075 91.25733 95.51757 102.836849 110.81711 118.73369 126.11664">EXPERIENCE </tspan></text>
<path transform="matrix(1,0,0,-1,0,792)" d="M 52.5 575.34 L 559.5 575.34 L 559.5 576.84 L 52.5 576.84 Z " fill-rule="evenodd"/>
</g>
<g id="Layer-1" data-name="P">
</g>
<g id="Layer-1" data-name="P">
</g>
<g id="Layer-1" data-name="P">
</g>
<g id="Layer-1" data-name="LBody">
</g>
<g id="Layer-1" data-name="P">
</g>
<g id="Layer-1" data-name="LBody">
</g>
<g id="Layer-1" data-name="P">
</g>
<g id="Layer-1" data-name="LBody">
</g>
<g id="Layer-1" data-name="P">
</g>
<g id="Layer-1" data-name="P">
</g>
<g id="Layer-1" data-name="P">
</g>
<g id="Layer-1" data-name="P">
</g>
<g id="Layer-1" data-name="LBody">
</g>
<g id="Layer-1" data-name="P">
</g>
<g id="Layer-1" data-name="LBody">
</g>
<g id="Layer-1" data-name="P">
</g>
<g id="Layer-1" data-name="LBody">
</g>
<g id="Layer-1" data-name="P">
</g>
<g id="Layer-1" data-name="P">
</g>
<g id="Layer-1" data-name="P">
</g>
<text xml:space="preserve" transform="matrix(1 0 -0 1 0 792)" font-size="10.98" font-family="TimesNewRomanPS" font-weight="bold"><tspan y="-565.08" x="54 60.120256 64.9844 70.50404 74.16478 77.82442 80.884548 85.74869 88.49916 94.619419 99.48356 105.003208 111.12346 116.6442 124.56078 130.68103 134.94127 137.70053 143.81639 147.47602 152.99565 159.11151 162.17493 168.29079">Seattle Seahawks Stadium</tspan></text>
<text xml:space="preserve" transform="matrix(1 0 -0 1 0 792)" font-size="10.98" font-family="TimesNewRomanPS" font-style="italic"><tspan y="-565.08" x="177.41519"> </tspan></text>
<text xml:space="preserve" transform="matrix(1 0 -0 1 0 792)" font-size="10.98" font-family="TimesNewRomanPSMT"><tspan y="-565.08" x="180.17118 182.33423">| </tspan></text>
<text xml:space="preserve" transform="matrix(1 0 -0 1 0 792)" font-size="10.98" font-family="TimesNewRomanPS" font-style="italic"><tspan y="-565.08" x="185.09021 190.60985 195.46959 200.99033 204.05374 207.11716 210.18058 215.04032 217.7963 220.61817 229.73815">Seattle, WA</tspan></text>
<text xml:space="preserve" transform="matrix(1 0 -0 1 0 792)" font-size="10.98" font-family="TimesNewRomanPSMT"><tspan y="-565.08" x="236.50955 455.6264 459.88667 464.7464 470.26936 475.7923 480.65205 484.31169 489.89173 492.6477 498.10807 503.631 509.15397 514.6143 517.3703 522.8899 525.6459 531.7661 535.4258 540.2899 544.5502 549.4143 554.93399 557.982"> January 2019 &#x2013; Present </tspan></text>
<text xml:space="preserve" transform="matrix(1 0 -0 1 0 792)" font-size="10.98" font-family="TimesNewRomanPS" font-style="italic"><tspan y="-552.475" x="53.978059 60.69782 64.95806 70.480998 74.13734 78.397579 83.92052 89.44346 94.9664 97.722377 104.44213 112.35871 117.879459 120.93958 126.45923 131.32337 136.1875 141.05164">Pro-shop Employee </tspan></text>
<text xml:space="preserve" transform="matrix(1 0 -0 1 0 792)" font-size="10.98" font-family="TimesNewRomanPSMT"><tspan y="-539.81509" x="53.978059"> </tspan></text>
<text xml:space="preserve" transform="matrix(1 0 -0 1 0 792)" font-size="10.98" font-family="SymbolMT"><tspan y="-526.37557" x="53.978059">&#x2022;</tspan></text>
<text xml:space="preserve" transform="matrix(1 0 -0 1 0 792)" font-size="10.98" font-family="ArialMT"><tspan y="-526.37557" x="59.017877"> </tspan></text>
<text xml:space="preserve" transform="matrix(1 0 -0 1 0 792)" font-size="10.98" font-family="TimesNewRomanPSMT"><tspan y="-526.37557" x="71.97427 79.297939 84.16208 89.681728 92.74185 97.605998 105.522579 108.5827 114.10235 119.62309 122.37907 127.24321 132.76285 138.28359 141.03957 145.9037 151.42444 156.28858 159.28832 164.86945 169.73358 172.7937 178.31334 183.83408 186.59006 189.5909 195.11054 199.97467 202.73065 205.79077 208.85089 213.77103 222.23113 226.49137 229.24735 232.30857 237.8282 240.58419 245.44832 250.96796 255.2282 260.74894 264.40858 269.2727 272.0287 275.08885 280.6085 285.47264 289.13227 293.9964 296.75239 301.61653 305.27726 310.1974 312.95338 317.8175 323.33717 328.8579 334.37757 339.89723 345.35758 348.11357 351.1737 354.23387 359.098 367.61848 371.87873 374.6347 377.3907 380.45085 385.9705 388.72648 392.98674 396.04689 401.56654 406.43067 411.95033 414.7063 418.96656 424.4862 427.1862 432.05033 437.57109 441.83134 444.89149 450.47154 458.9316 463.79576 467.45539 471.71565 474.5364 479.40055 484.32069 489.84034 492.5963 496.25596 499.3161 504.83686 510.3565 513.1125 521.02908 526.5487 531.41287 534.47299 537.22897 540.22976 545.68899 550.5531 556.1331">Reviewing and analyzing the items to ensure there are enough items  in stock so customers can find what they </tspan><tspan y="-513.71566" x="71.97427 77.49392 82.35806 87.222209 92.73746 95.49344 98.553569 103.41771 108.28185 113.8015 118.06174 120.81771 125.07795 130.5987 133.35468 138.21881 140.9748 145.23503 150.09917 153.15929 156.2194 160.47965 164.13927 167.19939 172.06352 177.58426 180.34024 185.20438 190.78441 195.04465 198.10367 203.6848 212.1438 217.00794 220.66756 223.47632">need leads so a satisfied customer. </tspan><tspan y="-501.0557" x="71.97427"> </tspan></text>
<text xml:space="preserve" transform="matrix(1 0 -0 1 0 792)" font-size="10.98" font-family="SymbolMT"><tspan y="-487.61619" x="53.978055">&#x2022;</tspan></text>
<text xml:space="preserve" transform="matrix(1 0 -0 1 0 792)" font-size="10.98" font-family="ArialMT"><tspan y="-487.61619" x="59.017877"> </tspan></text>
<text xml:space="preserve" transform="matrix(1 0 -0 1 0 792)" font-size="10.98" font-family="TimesNewRomanPSMT"><tspan y="-487.61619" x="71.97427 79.890857 84.811 93.27109 98.79073 104.31148 108.57172 111.63184 115.29148 120.155628 123.276149 128.1359 130.95557 135.8153 141.33605 144.39946 147.46288 150.52629 153.52602 159.10605 161.86203 164.92545 170.44509 173.20107 178.0619 183.58155 188.38089 193.90163 196.96504 199.71558 207.63216 213.1529 216.21302 219.27313 224.13727 226.89325 232.41289 237.27703 242.14116 245.20238 248.2614 253.78214 259.3018 262.05778 265.11793 270.63758 273.63844 279.15809 284.67884 287.73789 292.60203 297.46617 300.5263 305.39045 310.9112 313.66719 318.5313 324.05097 328.31123 331.37138 336.89103 345.3511 350.21525 353.93528 358.19554 360.9349 364.05546 369.5751 372.3311 377.19523 382.71488 386.97514 392.49589 396.15553 401.01966 403.77565 408.63978 414.16053 418.42079 421.48094 427.00059 435.52107 440.3852 444.03157 446.78755 451.0478 455.91194 458.97209 462.03224 466.29249 470.0125 474.87666 479.74079 482.86024 485.92039 491.44114 496.9608 499.71678 504.5809 510.10057 515.62136">Demonstrate ability to adapt while dealing intoxicated customers to ensure customer satisfaction and </tspan><tspan y="-474.95625" x="71.96329 76.82743 82.40746 90.86755 96.3883 101.25244 106.77209 112.35212 115.10809 119.36833 124.232479 127.2926 132.15674 134.90064">company sale. </tspan><tspan y="-462.3512" x="53.956079"> </tspan></text>
<text xml:space="preserve" transform="matrix(1 0 -0 1 0 792)" font-size="10.98" font-family="SymbolMT"><tspan y="-448.91169" x="53.956079">&#x2022;</tspan></text>
<text xml:space="preserve" transform="matrix(1 0 -0 1 0 792)" font-size="10.98" font-family="ArialMT"><tspan y="-448.91169" x="58.995897"> </tspan></text>
<text xml:space="preserve" transform="matrix(1 0 -0 1 0 792)" font-size="10.98" font-family="TimesNewRomanPSMT"><tspan y="-448.91169" x="71.95229 79.27266 84.792308 87.85573 90.91915 95.78 101.299648 106.81929 110.47893 115.339778 118.4032 123.264049 126.02003 136.39614 139.45955 142.52297 148.0437 150.79969 156.32262 161.84555 168.0251 170.77228 175.03252 178.09264 182.95677 186.61641 190.27275 193.0397 196.09983 201.62276 204.37874 208.63788 214.16082 222.6198 225.37578 230.89871 236.42165 239.17763 244.69837 249.5625 252.62262 255.68274 261.2628 264.01878 267.01853 272.53819 275.59834 280.46247 283.5226 286.2786 291.79936 295.45899 298.21498 302.41484 307.27897 310.3391 315.20326 319.4635 322.21949 325.27964 330.80039 333.55638 338.4205 343.94017 348.2004 353.72007 357.3808 362.30094 365.05693 369.31718 374.1769 379.03666 384.5596 388.21925 391.27937 394.33949 399.91954 402.6755 408.19847 411.7988 417.32176 420.3215 425.18235 430.04209 433.1022 436.16123 441.68418 447.20713 449.9631 455.48606 459.1457 461.90168 466.7614 472.28437 480.80375 486.3267 491.18644 496.6468 502.21455 504.97053 509.23078 512.2909 517.81057 522.6747 528.1273">Collaborate With 20+ staff to sum up daily total of sales to ensure security protection of company stock </tspan><tspan y="-436.25175" x="53.945039"> </tspan></text>
<text xml:space="preserve" transform="matrix(1 0 -0 1 0 792)" font-size="10.98" font-family="TimesNewRomanPS" font-weight="bold"><tspan y="-423.5918" x="53.945039 61.265405 67.38566 72.2498 75.005779 79.266017 88.3849 93.90565 99.42529 102.488719 108.604579 113.52471 116.28069 120.54094 126.6568 130.91704 134.57666 137.64008 141.2997 147.41556 151.07518">The Imagine Institute</tspan></text>
<text xml:space="preserve" transform="matrix(1 0 -0 1 0 792)" font-size="10.98" font-family="TimesNewRomanPS" font-style="italic"><tspan y="-423.5918" x="155.94924 158.70522 161.70496 164.46094 169.98058 174.90071 180.42035 183.48377 186.54718 189.6106 194.47144 197.22742 199.99002 209.1144"> | Seattle, WA</tspan></text>
<text xml:space="preserve" transform="matrix(1 0 -0 1 0 792)" font-size="10.98" font-family="TimesNewRomanPSMT"><tspan y="-423.5918" x="215.83417 233.95117 269.9546 305.958 341.96144 377.96485 413.96827 449.97169 454.23194 459.09169 464.61463 470.13758 474.9973 478.65806 484.2381 486.99409 492.45445 497.9774 503.50035 508.95625 511.71223 517.23519 519.99118 526.1114 529.77108 534.6352 538.89547 543.7596 549.27926 552.3273">       January 2021 &#x2013; Present </tspan></text>
<text xml:space="preserve" transform="matrix(1 0 -0 1 0 792)" font-size="10.98" font-family="TimesNewRomanPS" font-style="italic"><tspan y="-410.93186" x="53.96704 60.686803 64.947048 69.20728 72.26741 76.52765 79.587779 85.10742 90.62817 93.6817 96.43768 99.50111 102.25709 107.77783 113.23708 118.75673 123.01697 126.08039 129.14382 132.20723 137.72687 140.79029 145.63907">Assistant / Substitute </tspan></text>
<text xml:space="preserve" transform="matrix(1 0 -0 1 0 792)" font-size="10.98" font-family="TimesNewRomanPSMT"><tspan y="-398.2719" x="53.95607"> </tspan></text>
<text xml:space="preserve" transform="matrix(1 0 -0 1 0 792)" font-size="10.98" font-family="SymbolMT"><tspan y="-384.8324" x="53.95607">&#x2022;</tspan></text>
<text xml:space="preserve" transform="matrix(1 0 -0 1 0 792)" font-size="10.98" font-family="ArialMT"><tspan y="-384.8324" x="58.995889"> </tspan></text>
<text xml:space="preserve" transform="matrix(1 0 -0 1 0 792)" font-size="10.98" font-family="TimesNewRomanPSMT"><tspan y="-384.8324" x="71.952289 81.73218 86.59632 90.25706 95.7767 100.64085 103.699878 108.56402 114.083667 117.0812 121.94534 127.46499 130.52512 133.58524 139.10597 143.97011 148.83425 152.49497 157.3591 160.35665 165.22078 170.80081 179.26091 184.78165 189.70178 195.16104 200.74108 203.73862 209.19896 214.7219 217.71944 222.5792 226.23883 231.09859 235.95944 239.01847 242.07859 247.60152 253.12445 256.12199 264.58207 270.105 273.16514 276.22526 279.28538 284.80833 287.86845 292.72819 295.72575 299.986 305.50895 310.36869 313.4288 318.28855 321.34867 324.4088 332.8689 337.72865 343.2516 346.3117 351.17146 354.169 359.69197 362.75209 367.61183 370.67195 374.33268 379.85563 383.57563 392.0346 396.29487 399.29243 402.35255 407.8755 412.73634 415.79536 421.3183 426.84126 429.90138 435.42433 440.94728 443.94483 450.06507 454.9248 459.78565 464.6454 470.16835 475.69129 481.15165 486.6746 489.43498 492.43254 496.09217 501.6151 505.87538 508.9355 513.7952 519.3182 522.9789 527.8386 536.2987 539.058 542.1181 546.97787 552.5008 558.02377">Marketed childcare company by creating multiple social media platforms including Facebook, Instagram, and </tspan><tspan y="-372.22737" x="71.952289 78.07253 83.595478 88.45522 93.978168 98.83791 104.360858 109.220607 112.28073 115.03671 118.09684 122.95659 127.81744 133.34038 136.4005 141.92343 147.44637 150.20235 153.26247 158.7854 161.48538 167.00832 169.7643 174.62406 180.14699 185.66992 188.73004 191.72977 196.58953 201.45038 206.97332 210.03343 212.78942 215.84954 221.37247 226.23332 229.89296 234.75272 239.61248 243.93309 248.79285 251.54883 254.60895 260.1319 262.88789 266.54753 269.60765 273.26728 277.52754 280.58766 283.34364 291.8048 297.32777 302.8507 305.91084 311.43379">Snapchat leading to 5 applicant increase in first month </tspan><tspan y="-359.5674" x="71.952289"> </tspan></text>
<text xml:space="preserve" transform="matrix(1 0 -0 1 0 792)" font-size="10.98" font-family="SymbolMT"><tspan y="-346.1279" x="53.956068">&#x2022;</tspan></text>
<text xml:space="preserve" transform="matrix(1 0 -0 1 0 792)" font-size="10.98" font-family="ArialMT"><tspan y="-346.1279" x="58.995889"> </tspan></text>
<text xml:space="preserve" transform="matrix(1 0 -0 1 0 792)" font-size="10.98" font-family="TimesNewRomanPSMT"><tspan y="-346.1279" x="71.952289 79.27265 84.136798 89.65644 92.71657 97.58071 105.49729 108.25217 111.612049 116.47619 121.99693 126.86108 129.9816 135.56163 140.42577 145.2899 148.0327 151.39258 156.25672 161.77745 167.23671 170.59659 175.46073 180.98036 184.04048 189.50084 193.76108 196.8212 200.18108 205.70072 211.22145 215.48169 218.54181 224.06145 228.92559 233.18582 237.44606 241.16608 245.42632 248.7258 254.24654 259.76618 265.28694 270.80659 275.67073 278.73088 282.09074 286.95048 291.8113 296.67106 302.194 305.4935 313.95359 319.47654 324.99949 328.0596 333.58256 336.94245 340.00257 345.5255 348.8854 354.40837 358.0691 363.52836 368.3892 372.04884 375.40873 378.46885 383.9918 387.35169 391.01133 395.87217 401.3951 406.91807 411.7778 416.63755 419.99745 425.5204 431.04335 436.56629 441.42604 446.28688 451.1466 455.40687 459.66603 464.52577 468.1865 473.76655 477.12644 480.78608 486.30903 491.83198 497.35493 501.61408 504.37446 507.73435 511.39399 516.2548 520.5139 526.03689 529.097 532.156 535.2161 540.6765 546.19949 549.5594 552.55917 558.01956">Review, analyze, and adjust business&#x2019;s budget each month in order to reduce unnecessary funds, resulting in </tspan><tspan y="-333.46797" x="71.95228 77.47522 82.99816 88.5211 93.98036 96.73634 99.79647 105.31941 110.17916 113.83989 118.69964 123.55939 127.80753 132.72768 135.48366 138.54378 144.06671 146.8227 155.28278 160.80571 166.32865 169.38767 174.9106 177.91033 183.49036 186.24634 190.50658 195.36634 200.88927 203.94939 209.47232 214.99526 219.24897">$500 increase in monthly savings </tspan><tspan y="-320.808" x="71.95227"> </tspan></text>
<text xml:space="preserve" transform="matrix(1 0 -0 1 0 792)" font-size="10.98" font-family="SymbolMT"><tspan y="-307.3685" x="53.95605">&#x2022;</tspan></text>
<text xml:space="preserve" transform="matrix(1 0 -0 1 0 792)" font-size="10.98" font-family="ArialMT"><tspan y="-307.3685" x="58.995874"> </tspan></text>
<text xml:space="preserve" transform="matrix(1 0 -0 1 0 792)" font-size="10.98" font-family="TimesNewRomanPSMT"><tspan y="-307.3685" x="71.95227 78.07252 83.59546 86.65559 89.71571 95.238658 103.15853 108.01828 113.54122 116.2972 120.55744 123.61757 127.2772 132.73645 137.5973 140.65633 146.17926 149.8389 154.69866 160.22159 162.97757 168.5005 172.16014 177.68308 180.7432 186.26613 191.05234 196.57527 199.63539 202.39138 210.31125 215.83419 220.69394 226.21688 228.97286 233.83261 239.35555 243.61579 249.07613 252.73577 255.79589 261.31883 266.84178 269.59776 273.858 278.71775 282.37739 287.23713 290.29725 295.8773 298.57728 304.10023 307.76097 310.46095 315.9839 322.16343 324.9194 330.44236 333.50248 339.02543 343.26808 346.02406 351.5437 356.40785 360.06748 362.82347 368.2838 373.14796 378.728 381.48399 384.48374 390.0034 392.75938 398.27903 401.93977 407.4594 412.32356 415.9832 418.73918 421.79933 427.25859 430.01457 433.6753 439.19496 443.4552 446.51536 451.3795 455.04023 457.7962 462.05647 466.9206 470.58134 475.44548 478.20146 483.06559 488.64564 494.16639 497.22544 500.88618 506.40583 511.92658 520.38668 525.2508 530.77157 533.88088">Followed structured protocol when ensuring safety of 5+ kids per day in order to foster safe environment </tspan><tspan y="-294.70857" x="53.9451"> </tspan><tspan y="-282.10353" x="53.9451"> </tspan><tspan y="-269.44358" x="53.9451"> </tspan></text>
<g id="Layer-1" data-name="P">
<text xml:space="preserve" transform="matrix(1 0 -0 1 0 792)" font-size="10.98" font-family="TimesNewRomanPS" font-weight="bold"><tspan y="-256.8" x="54 61.320367 69.236949 77.15353 85.13379 93.05037 100.370738 104.69027 113.27114 121.18772">EDUCATION </tspan></text>
<path transform="matrix(1,0,0,-1,0,792)" d="M 52.5 251.88 L 559.5 251.88 L 559.5 253.38 L 52.5 253.38 Z " fill-rule="evenodd"/>
</g>
<g id="Layer-1" data-name="P">
</g>
<g id="Layer-1" data-name="P">
</g>
<g id="Layer-1" data-name="P">
</g>
<g id="Layer-1" data-name="LBody">
</g>
<g id="Layer-1" data-name="P">
</g>
<text xml:space="preserve" transform="matrix(1 0 -0 1 0 792)" font-size="10.98" font-family="TimesNewRomanPS" font-weight="bold"><tspan y="-241.62" x="54"> </tspan><tspan y="-229.01496" x="54 61.91658 66.78072 72.30147 77.16561 79.921588 87.838169 93.95622 96.712207 99.77233 102.528308 108.64746 113.567607 119.08835 122.747989 126.40872 129.46884 134.33298 137.08896 145.00554 149.86968 155.98993 159.64955 164.51369 170.03333 173.15384 175.90982 183.8264 189.34604 192.40616 195.46628 200.33042 205.85115 210.71529 213.47127">Year Up / Seattle Central College, </tspan></text>
<text xml:space="preserve" transform="matrix(1 0 -0 1 0 792)" font-size="10.98" font-family="TimesNewRomanPSMT"><tspan y="-229.01496" x="216.22949 222.34535 227.2051 232.12523 235.18865 238.25206 241.31548 246.17522 248.9312 251.68718 262.0633 269.98759 403.4275 409.54777 414.4119 419.93156 422.9917 427.91184 436.37193 441.89268 446.7568 450.41093 453.1669 458.68986 464.2128 469.73576 475.2587 478.00367 483.5266 486.2826 492.40284 497.26258 502.78553 505.84565 510.70539 519.16549 524.6884 529.54928 533.20889 535.96487 541.4878 547.01077 552.5337 557.982">Seattle, WA September 2022 &#x2013; September 2023 </tspan></text>
<text xml:space="preserve" transform="matrix(1 0 -0 1 0 792)" font-size="10.98" font-family="TimesNewRomanPS" font-style="italic"><tspan y="-216.35501" x="53.978059 60.098314 64.962459 70.4821 74.74234 77.498317 85.414897 90.93564 93.69161 96.75174 101.01198 103.76795 109.2876 114.74795 117.50392 120.56405 126.083698 129.14382 134.00795 139.52869 143.78893 146.84905 151.71318 156.57732 159.33769 162.09368 166.95781 172.47855 180.39513 185.91477 190.7789 193.83902 196.89914 199.95926 203.01938 207.88352 212.74765 215.49385 218.55397 223.4181 228.28224 233.86228 239.38191 242.44203 247.30617 252.8269 255.88703 258.643 261.70317 265.9634 271.48307 274.5432 280.06398 283.1241 288.58448 294.04374 296.7997 302.32048 307.84013 313.35978 316.11576 320.9799 326.50065 330.7609 335.62504 340.48918 344.74943 347.5054 353.02507 357.8892 362.75334 367.61747 370.6776 376.19728 381.71803 389.6346 394.49876 400.0195 403.07966 405.83564 411.35639 415.61665 421.1363 426.65596 430.9162 436.43696 444.35356 447.10954 449.85096 455.9712 461.49415 466.35389 469.10987 474.6328 478.89308 484.41603 489.93898 494.19923 499.72218 507.64207 510.39805 513.4581 518.9811 523.8408 526.8406 532.3635 537.8865 542.7462 547.0064">Year Up is an intensive, competitive technical training and career development program. The program includes </tspan><tspan y="-203.69507" x="53.96707 58.83121 64.35196 67.41209 70.47221 75.33636 80.856 85.720149 89.37649 92.436618 97.30076 102.1649 107.029048 110.08917 112.90883 117.77297 123.29372 128.81336 133.0736 137.33383 142.19797 146.4582 149.21858 151.97457 157.4942 161.75444 167.27408 170.3342 175.19834 179.45858 183.71881 186.77893 192.29967 197.8193 203.33895 206.39907 209.15505 212.21517 216.4754 221.99504 225.05516 230.51552 233.57564 239.09528 244.61602 247.372 252.83235 258.3531 263.87275 266.62873 272.08799 274.84397 279.10423 282.16438 287.0285 290.68486 298.60475 304.1277 309.65065 312.71076 318.2337 320.9897 324.0498 329.57276 332.63288 337.4926 341.75288 347.27583 351.47569 356.99864 360.05876 365.5817 368.2476">college-level courses, professional training and a six-month internship. </tspan></text>
<text xml:space="preserve" transform="matrix(1 0 -0 1 0 792)" font-size="10.98" font-family="SymbolMT"><tspan y="-190.25556" x="53.96707">&#x2022;</tspan></text>
<text xml:space="preserve" transform="matrix(1 0 -0 1 0 792)" font-size="10.98" font-family="ArialMT"><tspan y="-190.25556" x="59.00689"> </tspan></text>
<text xml:space="preserve" transform="matrix(1 0 -0 1 0 792)" font-size="10.98" font-family="TimesNewRomanPSMT"><tspan y="-190.25556" x="71.96329 79.28365 84.863689 93.32378 98.84342 101.90355 106.76769 109.82782 114.69196 120.21161 122.965389 127.82953 133.35027 138.8699 142.52953 146.78977 151.6539 159.57048 165.09012 168.75084 174.27048 177.02646 180.08658 185.60622 188.3622 194.42206 199.9428 203.60242 206.66254 214.57912 219.44326 223.10398 227.96811 230.72409 238.64067 243.5048 249.02555 253.94568 257.00584 262.52549 268.04515 276.50523 281.36936 286.889 289.94917 292.70515 297.56929 303.09004 308.60969 311.36567 318.08546 322.9496 327.20985 330.27 333.33015 338.8498 344.37055 347.12983 349.8858 356.00608 359.6657 365.18647 368.18623 373.05036 377.9145 380.97465 383.73063 393.5116 398.37574 403.8954 408.75953 414.27919 419.1993 427.77909 432.64323 438.16288 441.22303 443.9834 446.73939 451.60353 457.12318 462.64283 465.3988 472.71919 478.23884 482.49909 485.49885 491.0196 495.88374 500.14399 504.40425">Completed coursework in Software Development and Testing, Project Management, and Business </tspan><tspan y="-177.59561" x="71.96329 79.28365 84.863689 93.38307 101.84316 107.36391 112.88355 115.94368 120.80782 125.67197 128.73209 131.8515 137.37224 142.89188 147.15212 149.91249 152.66847 160.58506 163.64408 166.69873 172.21837 174.97435 179.23459 184.75423 189.55467 194.41881 197.47893 202.34307 205.40209 208.4622 213.32634 218.19048 223.71121 226.4672 229.52732 233.18804 238.05217 241.11229 246.63193 249.75244 255.27208 260.79283 263.5488 266.60896 272.1297 274.88569 282.80229 288.32194 293.18608 296.24623 299.30638 302.30723 307.82688 310.52687 318.44346 322.7037 326.96397 332.4836 336.14436 341.00849 346.52925 351.44828 356.3124 359.0717 361.82768 364.88783 370.40858 375.2727 378.33287 383.8525 389.37327 392.4323 397.95307 403.47273 406.2287 414.68879 419.55293 425.07368 430.59333 435.45747 438.5176 441.2736 445.53385 451.0535 454.71424 457.77439 465.69099 470.5551 474.21586 479.08 481.83598 484.89613 489.81626 494.0765 497.13667 500.1968 505.71757 511.2372 513.91928">Communications, with specialized training in Quality Assurance, including manual software testing  </tspan><tspan y="-164.93567" x="71.96329"> </tspan></text>
<g id="Layer-1" data-name="P">
<text xml:space="preserve" transform="matrix(1 0 -0 1 0 792)" font-size="10.98" font-family="TimesNewRomanPS" font-weight="bold"><tspan y="-152.28" x="54 61.320367 69.236949 77.21721 85.736598 93.653179 101.63234 110.21321 117.532489 123.65711">LANGUAGES </tspan></text>
<path transform="matrix(1,0,0,-1,0,792)" d="M 52.5 147.42 L 559.5 147.42 L 559.5 148.92 L 52.5 148.92 Z " fill-rule="evenodd"/>
</g>
<g id="Layer-1" data-name="LBody">
</g>
<text xml:space="preserve" transform="matrix(1 0 -0 1 0 792)" font-size="10.98" font-family="SymbolMT"><tspan y="-136.38" x="54">&#x2022;</tspan></text>
<text xml:space="preserve" transform="matrix(1 0 -0 1 0 792)" font-size="10.98" font-family="ArialMT"><tspan y="-136.38" x="59.039819"> </tspan></text>
<text xml:space="preserve" transform="matrix(1 0 -0 1 0 792)" font-size="10.98" font-family="TimesNewRomanPSMT"><tspan y="-136.38" x="71.996219 78.11647 83.636119 92.15659 97.01634 100.072078 103.1355 105.89148 109.54782 112.31478 115.37491 118.49432 126.954418 130.01454 133.07466 137.93442 143.45735 146.21334 154.13321 159.65615 163.31578 168.83872 171.89774 177.42067 182.9436 185.69959 191.75945 195.41909 200.94202 204.60276 207.66178 212.52153 215.58165 220.4414 225.96434 230.8241 236.34703">Somali - limited working Proficiency </tspan></text>
</g>
</svg>
